<svg width="20" height="20" viewBox="0 0 20 20" fill="none" xmlns="http://www.w3.org/2000/svg">
<path d="M9.99968 3.68752C10.1108 3.68752 10.215 3.70474 10.3122 3.73919C10.4094 3.77363 10.4997 3.8328 10.583 3.91669L16.083 9.41669C16.2497 9.58335 16.333 9.78113 16.333 10.01C16.333 10.2389 16.2497 10.437 16.083 10.6042C15.9163 10.7709 15.7219 10.8542 15.4997 10.8542C15.2775 10.8542 15.083 10.7709 14.9163 10.6042L10.833 6.52085L10.833 15.8542C10.833 16.0903 10.753 16.2847 10.593 16.4375C10.433 16.5903 10.2352 16.6667 9.99967 16.6667C9.76356 16.6667 9.56551 16.5867 9.40551 16.4267C9.24551 16.2667 9.16578 16.0689 9.16634 15.8334L9.16634 6.52085L5.08301 10.6042C4.91634 10.7709 4.7219 10.8542 4.49967 10.8542C4.27745 10.8542 4.08301 10.7709 3.91634 10.6042C3.74967 10.4375 3.66634 10.2395 3.66634 10.01C3.66634 9.78058 3.74967 9.5828 3.91634 9.41669L9.41634 3.91669C9.49968 3.83335 9.58995 3.77419 9.68718 3.73919C9.7844 3.70419 9.88856 3.68696 9.99968 3.68752Z" fill="#18A999"/>
</svg>
