<svg width="69" height="68" viewBox="0 0 69 68" fill="none" xmlns="http://www.w3.org/2000/svg">
<rect x="0.5" width="68" height="68" rx="34" fill="white"/>
<path d="M41.7362 19.8334H28.2637C26.6218 19.8334 25.8016 19.8334 25.1386 20.0643C24.5137 20.2863 23.9484 20.6492 23.4863 21.1248C23.0242 21.6004 22.6778 22.176 22.4738 22.807C22.25 23.4898 22.25 24.3341 22.25 26.0242V45.8632C22.25 47.0787 23.6454 47.7247 24.528 46.9172C24.7756 46.6884 25.1004 46.5613 25.4375 46.5613C25.7746 46.5613 26.0994 46.6884 26.347 46.9172L27.0312 47.5434C27.465 47.9445 28.0342 48.1673 28.625 48.1673C29.2158 48.1673 29.785 47.9445 30.2187 47.5434C30.6525 47.1422 31.2217 46.9194 31.8125 46.9194C32.4033 46.9194 32.9725 47.1422 33.4062 47.5434C33.84 47.9445 34.4092 48.1673 35 48.1673C35.5908 48.1673 36.16 47.9445 36.5937 47.5434C37.0275 47.1422 37.5967 46.9194 38.1875 46.9194C38.7783 46.9194 39.3475 47.1422 39.7812 47.5434C40.215 47.9445 40.7842 48.1673 41.375 48.1673C41.9658 48.1673 42.535 47.9445 42.9687 47.5434L43.653 46.9172C43.9006 46.6884 44.2254 46.5613 44.5625 46.5613C44.8996 46.5613 45.2244 46.6884 45.472 46.9172C46.3546 47.7247 47.75 47.0787 47.75 45.8632V26.0242C47.75 24.3341 47.75 23.4884 47.5262 22.8084C47.3224 22.1771 46.9761 21.6013 46.514 21.1254C46.0519 20.6495 45.4864 20.2865 44.8614 20.0643C44.1984 19.8334 43.3782 19.8334 41.7362 19.8334Z" stroke="#A5A5A5" stroke-width="1.5"/>
<path d="M32.8751 32.5833H42.0834M27.9167 32.5833H28.6251M27.9167 27.625H28.6251M27.9167 37.5417H28.6251M32.8751 27.625H42.0834M32.8751 37.5417H42.0834" stroke="#A5A5A5" stroke-width="1.5" stroke-linecap="round"/>
</svg>
