<svg width="69" height="68" viewBox="0 0 69 68" fill="none" xmlns="http://www.w3.org/2000/svg">
<rect x="0.5" width="68" height="68" rx="34" fill="white"/>
<path d="M50.0664 46.9918L47.9811 38.1789C47.8925 37.8 47.6779 37.4623 47.3726 37.2211C47.0672 36.9799 46.6891 36.8494 46.3 36.851H38.9994C41.069 33.5076 43.0467 29.7147 43.0467 27.4153C43.0467 22.7139 39.2248 18.8895 34.5272 18.8895C29.8295 18.8895 26.0083 22.7139 26.0083 27.4153C26.0083 29.7141 27.9853 33.5076 30.0555 36.851H23.6963C23.3082 36.85 22.9313 36.9807 22.6271 37.2216C22.3229 37.4626 22.1094 37.7996 22.0215 38.1776C22.0517 38.0498 21.6128 39.8977 19.921 47.0472C19.7113 48.1069 20.533 49.1099 21.6122 49.1099H48.3841C49.4979 49.1099 50.317 48.081 50.0664 46.9918ZM22.3092 41.0619L26.0945 43.7385L23.0169 48.1648H21.6147C21.1142 48.1648 20.7591 47.6882 20.8453 47.2462L22.3092 41.0619ZM48.3841 48.1648H33.9951L31.8947 46.6807L40.3815 40.9285L48.5093 44.518L49.1453 47.209C49.1716 47.3235 49.1718 47.4424 49.1458 47.5569C49.1198 47.6714 49.0683 47.7786 48.9951 47.8704C48.922 47.9623 48.829 48.0365 48.7232 48.0874C48.6174 48.1384 48.5015 48.1648 48.3841 48.1648ZM26.8677 44.285L32.3568 48.1648H24.1704L26.8677 44.285ZM46.3 37.7954C46.6652 37.7954 46.9787 38.0422 47.0618 38.3961L48.2361 43.3626L37.7874 38.7493C37.9908 38.4395 38.1979 38.1197 38.4051 37.7954H46.3ZM34.5272 19.834C38.7041 19.834 42.1016 23.2346 42.1016 27.4153C42.1016 30.6605 37.431 37.6815 35.4225 40.5494C35.0069 41.1432 34.0486 41.1438 33.6318 40.5494C31.6233 37.6815 26.9521 30.6605 26.9521 27.4153C26.9521 23.2346 30.3502 19.834 34.5265 19.834H34.5272ZM23.6963 37.7954H30.6493C31.3626 38.9093 32.099 40.0083 32.858 41.0915C33.669 42.2488 35.3847 42.25 36.1963 41.0915C36.525 40.6218 36.8826 40.1017 37.256 39.547L39.3608 40.477L31.0705 46.0983L22.5441 40.0709L22.9407 38.3955C23.0226 38.0479 23.3405 37.7954 23.6963 37.7954Z" fill="#A5A5A5"/>
<path d="M39.0611 27.304C39.0611 24.8024 37.0274 22.7668 34.5271 22.7668C32.0269 22.7668 29.9932 24.8024 29.9932 27.304C29.9932 29.8055 32.0269 31.8411 34.5265 31.8411C37.0261 31.8411 39.0611 29.8061 39.0611 27.304ZM30.9376 27.304C30.9376 25.3231 32.5476 23.7113 34.5265 23.7113C36.5054 23.7113 38.1166 25.3231 38.1166 27.304C38.1166 29.2848 36.5061 30.8966 34.5271 30.8966C32.5482 30.8966 30.9376 29.2848 30.9376 27.304Z" fill="#A5A5A5"/>
</svg>
