<svg width="69" height="68" viewBox="0 0 69 68" fill="none" xmlns="http://www.w3.org/2000/svg">
<path d="M1.5 34C1.5 15.7746 16.2746 1 34.5 1C52.7254 1 67.5 15.7746 67.5 34C67.5 52.2254 52.7254 67 34.5 67C16.2746 67 1.5 52.2254 1.5 34Z" fill="#18A999" fill-opacity="0.05"/>
<path d="M1.5 34C1.5 15.7746 16.2746 1 34.5 1C52.7254 1 67.5 15.7746 67.5 34C67.5 52.2254 52.7254 67 34.5 67C16.2746 67 1.5 52.2254 1.5 34Z" stroke="#18A999" stroke-width="2"/>
<path d="M50.0664 46.9917L47.9811 38.1787C47.8925 37.7998 47.6779 37.4622 47.3726 37.221C47.0672 36.9798 46.6891 36.8493 46.3 36.8508H38.9994C41.069 33.5075 43.0467 29.7146 43.0467 27.4152C43.0467 22.7138 39.2248 18.8894 34.5272 18.8894C29.8295 18.8894 26.0083 22.7138 26.0083 27.4152C26.0083 29.714 27.9853 33.5075 30.0555 36.8508H23.6963C23.3082 36.8499 22.9313 36.9806 22.6271 37.2215C22.3229 37.4625 22.1094 37.7995 22.0215 38.1775C22.0517 38.0497 21.6128 39.8976 19.921 47.0471C19.7113 48.1067 20.533 49.1097 21.6122 49.1097H48.3841C49.4979 49.1097 50.317 48.0809 50.0664 46.9917ZM22.3092 41.0618L26.0945 43.7384L23.0169 48.1647H21.6147C21.1142 48.1647 20.7591 47.688 20.8453 47.246L22.3092 41.0618ZM48.3841 48.1647H33.9951L31.8947 46.6806L40.3815 40.9283L48.5093 44.5178L49.1453 47.2089C49.1716 47.3233 49.1718 47.4422 49.1458 47.5568C49.1198 47.6713 49.0683 47.7785 48.9951 47.8703C48.922 47.9622 48.829 48.0364 48.7232 48.0873C48.6174 48.1383 48.5015 48.1647 48.3841 48.1647ZM26.8677 44.2849L32.3568 48.1647H24.1704L26.8677 44.2849ZM46.3 37.7953C46.6652 37.7953 46.9787 38.0421 47.0618 38.396L48.2361 43.3625L37.7874 38.7492C37.9908 38.4394 38.1979 38.1196 38.4051 37.7953H46.3ZM34.5272 19.8338C38.7041 19.8338 42.1016 23.2345 42.1016 27.4152C42.1016 30.6603 37.431 37.6813 35.4225 40.5493C35.0069 41.143 34.0486 41.1437 33.6318 40.5493C31.6233 37.6813 26.9521 30.6603 26.9521 27.4152C26.9521 23.2345 30.3502 19.8338 34.5265 19.8338H34.5272ZM23.6963 37.7953H30.6493C31.3626 38.9092 32.099 40.0082 32.858 41.0914C33.669 42.2487 35.3847 42.2499 36.1963 41.0914C36.525 40.6217 36.8826 40.1016 37.256 39.5469L39.3608 40.4769L31.0705 46.0982L22.5441 40.0708L22.9407 38.3953C23.0226 38.0478 23.3405 37.7953 23.6963 37.7953Z" fill="#18A999"/>
<path d="M39.0611 27.3037C39.0611 24.8022 37.0274 22.7666 34.5271 22.7666C32.0269 22.7666 29.9932 24.8022 29.9932 27.3037C29.9932 29.8052 32.0269 31.8408 34.5265 31.8408C37.0261 31.8408 39.0611 29.8059 39.0611 27.3037ZM30.9376 27.3037C30.9376 25.3229 32.5476 23.711 34.5265 23.711C36.5054 23.711 38.1166 25.3229 38.1166 27.3037C38.1166 29.2845 36.5061 30.8964 34.5271 30.8964C32.5482 30.8964 30.9376 29.2845 30.9376 27.3037Z" fill="#18A999"/>
</svg>
