<svg width="20" height="20" viewBox="0 0 20 20" fill="none" xmlns="http://www.w3.org/2000/svg">
<g clip-path="url(#clip0_306_15344)">
<path d="M17.917 3.33331H16.1115V4.44442H17.7781V16.6666H2.22258V4.44442H3.88925V3.33331H2.08369C1.95382 3.33548 1.82566 3.36322 1.70651 3.41493C1.58736 3.46664 1.47957 3.54132 1.38928 3.6347C1.299 3.72807 1.228 3.83832 1.18033 3.95915C1.13266 4.07997 1.10926 4.209 1.11147 4.33887V16.7722C1.10926 16.9021 1.13266 17.0311 1.18033 17.1519C1.228 17.2727 1.299 17.383 1.38928 17.4764C1.47957 17.5698 1.58736 17.6444 1.70651 17.6961C1.82566 17.7479 1.95382 17.7756 2.08369 17.7778H17.917C18.0469 17.7756 18.1751 17.7479 18.2942 17.6961C18.4134 17.6444 18.5212 17.5698 18.6114 17.4764C18.7017 17.383 18.7727 17.2727 18.8204 17.1519C18.8681 17.0311 18.8915 16.9021 18.8892 16.7722V4.33887C18.8915 4.209 18.8681 4.07997 18.8204 3.95915C18.7727 3.83832 18.7017 3.72807 18.6114 3.6347C18.5212 3.54132 18.4134 3.46664 18.2942 3.41493C18.1751 3.36322 18.0469 3.33548 17.917 3.33331Z" fill="#18A999"/>
<path d="M4.44434 7.77777H5.55545V8.88888H4.44434V7.77777Z" fill="#18A999"/>
<path d="M7.77734 7.77777H8.88845V8.88888H7.77734V7.77777Z" fill="#18A999"/>
<path d="M11.1111 7.77777H12.2222V8.88888H11.1111V7.77777Z" fill="#18A999"/>
<path d="M14.4443 7.77777H15.5554V8.88888H14.4443V7.77777Z" fill="#18A999"/>
<path d="M4.44434 10.5555H5.55545V11.6667H4.44434V10.5555Z" fill="#18A999"/>
<path d="M7.77734 10.5555H8.88845V11.6667H7.77734V10.5555Z" fill="#18A999"/>
<path d="M11.1111 10.5555H12.2222V11.6667H11.1111V10.5555Z" fill="#18A999"/>
<path d="M14.4443 10.5555H15.5554V11.6667H14.4443V10.5555Z" fill="#18A999"/>
<path d="M4.44434 13.3333H5.55545V14.4444H4.44434V13.3333Z" fill="#18A999"/>
<path d="M7.77734 13.3333H8.88845V14.4444H7.77734V13.3333Z" fill="#18A999"/>
<path d="M11.1111 13.3333H12.2222V14.4444H11.1111V13.3333Z" fill="#18A999"/>
<path d="M14.4443 13.3333H15.5554V14.4444H14.4443V13.3333Z" fill="#18A999"/>
<path d="M5.55556 5.55553C5.7029 5.55553 5.84421 5.497 5.94839 5.39281C6.05258 5.28862 6.11111 5.14732 6.11111 4.99997V1.66664C6.11111 1.5193 6.05258 1.37799 5.94839 1.2738C5.84421 1.16962 5.7029 1.11108 5.55556 1.11108C5.40821 1.11108 5.26691 1.16962 5.16272 1.2738C5.05853 1.37799 5 1.5193 5 1.66664V4.99997C5 5.14732 5.05853 5.28862 5.16272 5.39281C5.26691 5.497 5.40821 5.55553 5.55556 5.55553Z" fill="#18A999"/>
<path d="M14.4445 5.55553C14.5918 5.55553 14.7331 5.497 14.8373 5.39281C14.9415 5.28862 15 5.14732 15 4.99997V1.66664C15 1.5193 14.9415 1.37799 14.8373 1.2738C14.7331 1.16962 14.5918 1.11108 14.4445 1.11108C14.2971 1.11108 14.1558 1.16962 14.0516 1.2738C13.9474 1.37799 13.8889 1.5193 13.8889 1.66664V4.99997C13.8889 5.14732 13.9474 5.28862 14.0516 5.39281C14.1558 5.497 14.2971 5.55553 14.4445 5.55553Z" fill="#18A999"/>
<path d="M7.22266 3.33331H12.7782V4.44442H7.22266V3.33331Z" fill="#18A999"/>
</g>
<defs>
<clipPath id="clip0_306_15344">
<rect width="20" height="20" fill="white"/>
</clipPath>
</defs>
</svg>
