<svg width="20" height="20" viewBox="0 0 20 20" fill="none" xmlns="http://www.w3.org/2000/svg">
<g clip-path="url(#clip0_2387_21)">
<path fill-rule="evenodd" clip-rule="evenodd" d="M8.18333 0.165C8.77167 0.0566667 9.37917 0 10 0C15.5225 0 20 4.4775 20 10C20 15.5225 15.5225 20 10 20C9.38 20 8.7725 19.9433 8.18333 19.835C8.07409 19.817 7.96953 19.7775 7.87574 19.7187C7.78195 19.6599 7.70083 19.583 7.6371 19.4924C7.57337 19.4019 7.52831 19.2996 7.50456 19.1915C7.48081 19.0833 7.47885 18.9716 7.49878 18.8627C7.51871 18.7538 7.56013 18.6499 7.62064 18.5572C7.68114 18.4645 7.75952 18.3848 7.85118 18.3227C7.94283 18.2606 8.04595 18.2175 8.15448 18.1957C8.26302 18.1739 8.37482 18.1739 8.48333 18.1958C8.975 18.2858 9.48167 18.3333 10 18.3333C14.6025 18.3333 18.3333 14.6025 18.3333 10C18.3333 5.3975 14.6025 1.66667 10 1.66667C9.48167 1.66667 8.975 1.71417 8.48333 1.80417C8.37482 1.82606 8.26302 1.82612 8.15448 1.80433C8.04595 1.78255 7.94283 1.73935 7.85118 1.67727C7.75952 1.61519 7.68114 1.53547 7.62064 1.44276C7.56013 1.35005 7.51871 1.24622 7.49878 1.13732C7.47885 1.02843 7.48081 0.916653 7.50456 0.808526C7.52831 0.700399 7.57337 0.598087 7.6371 0.507567C7.70083 0.417047 7.78195 0.340132 7.87574 0.281314C7.96953 0.222496 8.07409 0.182955 8.18333 0.165ZM6.1375 1.64167C6.19238 1.73642 6.22805 1.84107 6.24246 1.94962C6.25687 2.05817 6.24975 2.16849 6.22151 2.27429C6.19326 2.38008 6.14443 2.47927 6.07783 2.56619C6.01122 2.65311 5.92814 2.72604 5.83333 2.78083C4.69668 3.43916 3.73069 4.35548 3.01333 5.45583C2.89244 5.64104 2.70292 5.77064 2.48647 5.81612C2.27003 5.8616 2.04438 5.81923 1.85917 5.69833C1.67396 5.57744 1.54436 5.38792 1.49888 5.17147C1.4534 4.95503 1.49577 4.72938 1.61667 4.54417C2.47754 3.22511 3.63651 2.12695 5 1.33833C5.09476 1.28345 5.1994 1.24779 5.30795 1.23337C5.4165 1.21896 5.52683 1.22608 5.63262 1.25433C5.73842 1.28258 5.83761 1.3314 5.92452 1.398C6.01144 1.46461 6.08438 1.54769 6.13917 1.6425L6.1375 1.64167ZM14.7375 6.89333C14.8171 6.9685 14.8811 7.05861 14.9258 7.15852C14.9706 7.25842 14.9952 7.36617 14.9983 7.47559C15.0014 7.58502 14.9829 7.69398 14.9439 7.79626C14.9048 7.89854 14.846 7.99212 14.7708 8.07167L9.41083 13.7433C9.28603 13.8767 9.13517 13.983 8.9676 14.0557C8.80003 14.1284 8.61932 14.1659 8.43667 14.1659C8.25401 14.1659 8.0733 14.1284 7.90573 14.0557C7.73816 13.983 7.5873 13.8767 7.4625 13.7433L5.22667 11.3783C5.15148 11.2988 5.09271 11.2052 5.0537 11.1029C5.01468 11.0006 4.9962 10.8917 4.99929 10.7823C5.00554 10.5613 5.09932 10.3518 5.26 10.2C5.42068 10.0482 5.63509 9.96637 5.85607 9.97263C6.07705 9.97888 6.2865 10.0727 6.43833 10.2333L8.43667 12.3475L13.56 6.92667C13.6352 6.84708 13.7253 6.78309 13.8252 6.73834C13.9251 6.69359 14.0328 6.66897 14.1423 6.66587C14.2517 6.66278 14.3607 6.68127 14.4629 6.7203C14.5652 6.75933 14.6588 6.81813 14.7383 6.89333H14.7375ZM1.26 7.105C1.4751 7.15516 1.66149 7.28866 1.77821 7.47617C1.89493 7.66367 1.93244 7.88985 1.8825 8.105C1.74167 8.71333 1.66667 9.34667 1.66667 10C1.66667 10.6533 1.74167 11.2867 1.88333 11.895C1.93328 12.1104 1.89563 12.3368 1.77865 12.5244C1.66168 12.712 1.47496 12.8455 1.25958 12.8954C1.04421 12.9454 0.817807 12.9077 0.630192 12.7907C0.442578 12.6738 0.309116 12.487 0.259167 12.2717C0.09 11.5417 0 10.78 0 10C0 9.22 0.09 8.45833 0.259167 7.72833C0.309141 7.51308 0.442563 7.32649 0.630093 7.2096C0.817622 7.0927 1.04473 7.05508 1.26 7.105ZM1.86 14.3017C1.95173 14.2418 2.05437 14.2005 2.16206 14.1804C2.26974 14.1602 2.38034 14.1614 2.48754 14.184C2.59474 14.2066 2.69643 14.2501 2.7868 14.3121C2.87716 14.374 2.95443 14.4532 3.01417 14.545C3.73139 15.645 4.69707 16.561 5.83333 17.2192C6.02462 17.3299 6.16409 17.5121 6.22105 17.7256C6.27802 17.9392 6.24781 18.1666 6.13708 18.3579C6.02636 18.5492 5.84417 18.6887 5.63062 18.7456C5.41706 18.8026 5.18962 18.7724 4.99833 18.6617C3.63536 17.8726 2.47697 16.7742 1.61667 15.455C1.5569 15.3633 1.51578 15.2607 1.49566 15.1531C1.47554 15.0455 1.47681 14.935 1.49941 14.8279C1.52201 14.7208 1.56548 14.6192 1.62735 14.5289C1.68922 14.4386 1.76828 14.3614 1.86 14.3017Z" fill="#3D8BD3"/>
</g>
<defs>
<clipPath id="clip0_2387_21">
<rect width="20" height="20" fill="white"/>
</clipPath>
</defs>
</svg>
