<svg width="20" height="20" viewBox="0 0 20 20" fill="none" xmlns="http://www.w3.org/2000/svg">
<path d="M2.9171 8.0975L9.56211 14.575C9.67882 14.6888 9.83536 14.7524 9.99835 14.7524C10.1613 14.7524 10.3179 14.6888 10.4346 14.575L17.0821 8.0975C17.1365 8.04451 17.1798 7.98115 17.2093 7.91116C17.2389 7.84117 17.2541 7.76597 17.2541 7.69C17.2541 7.61404 17.2389 7.53884 17.2093 7.46885C17.1798 7.39886 17.1365 7.3355 17.0821 7.2825C16.9705 7.17347 16.8206 7.11242 16.6646 7.11242C16.5086 7.11242 16.3587 7.17347 16.2471 7.2825L9.99835 13.3738L3.75085 7.2825C3.63929 7.17384 3.48971 7.11303 3.33398 7.11303C3.17825 7.11303 3.02867 7.17384 2.9171 7.2825C2.86268 7.3355 2.81941 7.39886 2.78988 7.46885C2.76034 7.53884 2.74512 7.61404 2.74512 7.69C2.74512 7.76597 2.76034 7.84117 2.78988 7.91116C2.81941 7.98115 2.86268 8.04451 2.9171 8.0975Z" fill="#18A999"/>
</svg>
