<svg width="20" height="20" viewBox="0 0 20 20" fill="none" xmlns="http://www.w3.org/2000/svg">
<g clip-path="url(#clip0_4017_3898)">
<path d="M8.0284 17.7637L3.51414e-07 10.0394L8.0284 2.31517C8.10091 2.22404 8.19303 2.14888 8.29852 2.09478C8.40402 2.04069 8.52042 2.00892 8.63986 2.00162C8.7593 1.99433 8.87898 2.01168 8.9908 2.05251C9.10262 2.09333 9.20397 2.15668 9.28799 2.23825C9.37201 2.31983 9.43674 2.41773 9.47779 2.52533C9.51884 2.63293 9.53526 2.74772 9.52594 2.86192C9.51661 2.97612 9.48176 3.08707 9.42374 3.18726C9.36572 3.28745 9.28588 3.37454 9.18964 3.44263L3.18296 9.23981L19.1646 9.23981C19.3861 9.23981 19.5986 9.32405 19.7553 9.47401C19.912 9.62396 20 9.82735 20 10.0394C20 10.2515 19.912 10.4549 19.7553 10.6048C19.5986 10.7548 19.3861 10.839 19.1646 10.839L3.18296 10.839L9.18964 16.6362C9.34585 16.7868 9.43316 16.9906 9.43238 17.2028C9.43159 17.415 9.34278 17.6182 9.18546 17.7677C9.02815 17.9172 8.81523 18.0007 8.59354 18C8.37185 17.9992 8.15955 17.9142 8.00334 17.7637L8.0284 17.7637Z" fill="#18A999"/>
</g>
<defs>
<clipPath id="clip0_4017_3898">
<rect width="20" height="20" fill="white" transform="matrix(4.37114e-08 1 1 -4.37114e-08 0 0)"/>
</clipPath>
</defs>
</svg>
