<svg width="20" height="20" viewBox="0 0 20 20" fill="none" xmlns="http://www.w3.org/2000/svg">
<g clip-path="url(#clip0_2414_563)">
<path d="M10.0001 4.375C10.0001 4.20924 9.93427 4.05027 9.81706 3.93306C9.69985 3.81585 9.54088 3.75 9.37512 3.75C9.20936 3.75 9.05039 3.81585 8.93318 3.93306C8.81597 4.05027 8.75012 4.20924 8.75012 4.375V11.25C8.75016 11.3602 8.77931 11.4684 8.83463 11.5636C8.88995 11.6589 8.96946 11.7379 9.06512 11.7925L13.4401 14.2925C13.5837 14.3701 13.7519 14.3885 13.9089 14.3437C14.0658 14.2989 14.199 14.1944 14.2799 14.0527C14.3609 13.9111 14.3832 13.7433 14.3422 13.5854C14.3011 13.4274 14.1999 13.2918 14.0601 13.2075L10.0001 10.8875V4.375Z" fill="#E54444"/>
<path d="M10.0001 20C12.6523 20 15.1958 18.9464 17.0712 17.0711C18.9466 15.1957 20.0001 12.6522 20.0001 10C20.0001 7.34784 18.9466 4.8043 17.0712 2.92893C15.1958 1.05357 12.6523 0 10.0001 0C7.34796 0 4.80442 1.05357 2.92905 2.92893C1.05369 4.8043 0.00012207 7.34784 0.00012207 10C0.00012207 12.6522 1.05369 15.1957 2.92905 17.0711C4.80442 18.9464 7.34796 20 10.0001 20ZM18.7501 10C18.7501 12.3206 17.8282 14.5462 16.1873 16.1872C14.5464 17.8281 12.3208 18.75 10.0001 18.75C7.67948 18.75 5.45388 17.8281 3.81294 16.1872C2.17199 14.5462 1.25012 12.3206 1.25012 10C1.25012 7.67936 2.17199 5.45376 3.81294 3.81282C5.45388 2.17187 7.67948 1.25 10.0001 1.25C12.3208 1.25 14.5464 2.17187 16.1873 3.81282C17.8282 5.45376 18.7501 7.67936 18.7501 10Z" fill="#E54444"/>
</g>
<defs>
<clipPath id="clip0_2414_563">
<rect width="20" height="20" fill="white"/>
</clipPath>
</defs>
</svg>
