<svg width="44" height="44" viewBox="0 0 44 44" fill="none" xmlns="http://www.w3.org/2000/svg">
<rect x="0.5" y="0.5" width="43" height="43" rx="5.5" fill="white"/>
<rect x="0.5" y="0.5" width="43" height="43" rx="5.5" stroke="#18A999"/>
<g clip-path="url(#clip0_306_15848)">
<path d="M20.0284 29.7637L12 22.0394L20.0284 14.3152C20.1009 14.224 20.193 14.1489 20.2985 14.0948C20.404 14.0407 20.5204 14.0089 20.6399 14.0016C20.7593 13.9943 20.879 14.0117 20.9908 14.0525C21.1026 14.0933 21.204 14.1567 21.288 14.2383C21.372 14.3198 21.4367 14.4177 21.4778 14.5253C21.5188 14.6329 21.5353 14.7477 21.5259 14.8619C21.5166 14.9761 21.4818 15.0871 21.4237 15.1873C21.3657 15.2874 21.2859 15.3745 21.1896 15.4426L15.183 21.2398L31.1646 21.2398C31.3861 21.2398 31.5986 21.3241 31.7553 21.474C31.912 21.624 32 21.8273 32 22.0394C32 22.2515 31.912 22.4549 31.7553 22.6048C31.5986 22.7548 31.3861 22.839 31.1646 22.839L15.183 22.839L21.1896 28.6362C21.3458 28.7868 21.4332 28.9906 21.4324 29.2028C21.4316 29.415 21.3428 29.6182 21.1855 29.7677C21.0282 29.9172 20.8152 30.0007 20.5935 30C20.3718 29.9992 20.1595 29.9142 20.0033 29.7637L20.0284 29.7637Z" fill="#18A999"/>
</g>
<defs>
<clipPath id="clip0_306_15848">
<rect width="20" height="20" fill="white" transform="matrix(4.37114e-08 1 1 -4.37114e-08 12 12)"/>
</clipPath>
</defs>
</svg>
