<svg width="44" height="44" viewBox="0 0 44 44" fill="none" xmlns="http://www.w3.org/2000/svg">
<rect x="0.5" y="0.5" width="43" height="43" rx="5.5" fill="white"/>
<rect x="0.5" y="0.5" width="43" height="43" rx="5.5" stroke="#18A999"/>
<path d="M22 26.599L17.4499 22.0501L18.3601 21.1244L21.3571 24.1214V13H22.6429V24.1214L25.6386 21.1257L26.5501 22.0501L22 26.599ZM15.0777 31C14.4854 31 13.9913 30.802 13.5953 30.406C13.1993 30.01 13.0009 29.5154 13 28.9223V25.807H14.2857V28.9223C14.2857 29.1203 14.368 29.302 14.5326 29.4674C14.6971 29.6329 14.8784 29.7151 15.0764 29.7143H28.9236C29.1207 29.7143 29.302 29.632 29.4674 29.4674C29.6329 29.3029 29.7151 29.1211 29.7143 28.9223V25.807H31V28.9223C31 29.5146 30.802 30.0087 30.406 30.4047C30.01 30.8007 29.5154 30.9991 28.9223 31H15.0777Z" fill="#18A999"/>
</svg>
