<svg width="44" height="44" viewBox="0 0 44 44" fill="none" xmlns="http://www.w3.org/2000/svg">
<rect x="0.5" y="0.5" width="43" height="43" rx="5.5" fill="white"/>
<rect x="0.5" y="0.5" width="43" height="43" rx="5.5" stroke="#18A999"/>
<path d="M13.25 28.25H30.75V29.5H13.25V28.25ZM27.875 17.625C28.375 17.125 28.375 16.375 27.875 15.875L25.625 13.625C25.125 13.125 24.375 13.125 23.875 13.625L14.5 23V27H18.5L27.875 17.625ZM24.75 14.5L27 16.75L25.125 18.625L22.875 16.375L24.75 14.5ZM15.75 25.75V23.5L22 17.25L24.25 19.5L18 25.75H15.75Z" fill="#18A999"/>
</svg>
