<svg width="109" height="71" viewBox="0 0 109 71" fill="none" xmlns="http://www.w3.org/2000/svg">
<path d="M0.5 6C0.5 2.96243 2.96243 0.5 6 0.5H103C106.038 0.5 108.5 2.96243 108.5 6V65C108.5 68.0376 106.038 70.5 103 70.5H6C2.96243 70.5 0.5 68.0376 0.5 65V6Z" fill="white"/>
<path d="M0.5 6C0.5 2.96243 2.96243 0.5 6 0.5H103C106.038 0.5 108.5 2.96243 108.5 6V65C108.5 68.0376 106.038 70.5 103 70.5H6C2.96243 70.5 0.5 68.0376 0.5 65V6Z" stroke="#18A999"/>
<path d="M51 24C50.8674 24 50.7402 23.9473 50.6464 23.8536C50.5527 23.7598 50.5 23.6326 50.5 23.5C50.5 23.3674 50.5527 23.2402 50.6464 23.1464C50.7402 23.0527 50.8674 23 51 23H58C58.1326 23 58.2598 23.0527 58.3536 23.1464C58.4473 23.2402 58.5 23.3674 58.5 23.5C58.5 23.6326 58.4473 23.7598 58.3536 23.8536C58.2598 23.9473 58.1326 24 58 24H51ZM51 27C50.8674 27 50.7402 26.9473 50.6464 26.8536C50.5527 26.7598 50.5 26.6326 50.5 26.5C50.5 26.3674 50.5527 26.2402 50.6464 26.1464C50.7402 26.0527 50.8674 26 51 26H58C58.1326 26 58.2598 26.0527 58.3536 26.1464C58.4473 26.2402 58.5 26.3674 58.5 26.5C58.5 26.6326 58.4473 26.7598 58.3536 26.8536C58.2598 26.9473 58.1326 27 58 27H51Z" fill="#18A999"/>
<path fill-rule="evenodd" clip-rule="evenodd" d="M55.685 13H49C48.6022 13 48.2206 13.158 47.9393 13.4393C47.658 13.7206 47.5 14.1022 47.5 14.5V29.5C47.5 29.8978 47.658 30.2794 47.9393 30.5607C48.2206 30.842 48.6022 31 49 31H60C60.3978 31 60.7794 30.842 61.0607 30.5607C61.342 30.2794 61.5 29.8978 61.5 29.5V19.202C61.4999 18.8265 61.359 18.4646 61.105 18.188L56.791 13.486C56.6504 13.3327 56.4795 13.2104 56.2891 13.1267C56.0987 13.0431 55.893 12.9999 55.685 13ZM48.5 14.5C48.5 14.3674 48.5527 14.2402 48.6464 14.1464C48.7402 14.0527 48.8674 14 49 14H55.685C55.7544 13.9999 55.823 14.0143 55.8865 14.0422C55.9501 14.0701 56.0071 14.1109 56.054 14.162L60.368 18.864C60.4528 18.9562 60.4999 19.0768 60.5 19.202V29.5C60.5 29.6326 60.4473 29.7598 60.3536 29.8536C60.2598 29.9473 60.1326 30 60 30H49C48.8674 30 48.7402 29.9473 48.6464 29.8536C48.5527 29.7598 48.5 29.6326 48.5 29.5V14.5Z" fill="#18A999"/>
<path d="M55.5 19H61C61.1326 19 61.2598 19.0527 61.3536 19.1464C61.4473 19.2402 61.5 19.3674 61.5 19.5C61.5 19.6326 61.4473 19.7598 61.3536 19.8536C61.2598 19.9473 61.1326 20 61 20H55C54.8674 20 54.7402 19.9473 54.6464 19.8536C54.5527 19.7598 54.5 19.6326 54.5 19.5V13.5C54.5 13.3674 54.5527 13.2402 54.6464 13.1464C54.7402 13.0527 54.8674 13 55 13C55.1326 13 55.2598 13.0527 55.3536 13.1464C55.4473 13.2402 55.5 13.3674 55.5 13.5V19Z" fill="#18A999"/>
<path d="M18.272 55.224C17.184 55.224 16.2133 54.9867 15.36 54.512C14.512 54.032 13.8427 53.3573 13.352 52.488C12.8667 51.6133 12.624 50.584 12.624 49.4C12.624 48.216 12.8693 47.1893 13.36 46.32C13.856 45.4453 14.5333 44.7707 15.392 44.296C16.256 43.816 17.2373 43.576 18.336 43.576C18.9067 43.576 19.4507 43.6373 19.968 43.76C20.4853 43.8827 20.9387 44.04 21.328 44.232L21.168 45.64C20.768 45.448 20.328 45.2853 19.848 45.152C19.368 45.0187 18.8587 44.952 18.32 44.952C17.44 44.952 16.7013 45.152 16.104 45.552C15.5067 45.9467 15.0533 46.48 14.744 47.152C14.44 47.824 14.288 48.5733 14.288 49.4C14.288 50.2267 14.4373 50.976 14.736 51.648C15.04 52.32 15.488 52.856 16.08 53.256C16.6773 53.6507 17.4133 53.848 18.288 53.848C18.8427 53.848 19.3547 53.7893 19.824 53.672C20.2987 53.5493 20.7467 53.384 21.168 53.176L21.328 54.584C20.928 54.7653 20.4773 54.9173 19.976 55.04C19.4747 55.1627 18.9067 55.224 18.272 55.224ZM22.8194 55V43H24.2754V48.52L23.7634 48.488C24.1314 48.024 24.526 47.6613 24.9474 47.4C25.374 47.1333 25.918 47 26.5794 47C27.2567 47 27.822 47.152 28.2754 47.456C28.7287 47.76 29.0674 48.184 29.2914 48.728C29.5207 49.272 29.6354 49.9067 29.6354 50.632V55H28.1954V50.808C28.1954 49.944 28.0354 49.3067 27.7154 48.896C27.4007 48.4853 26.9154 48.28 26.2594 48.28C25.7634 48.28 25.3234 48.4133 24.9394 48.68C24.5607 48.9467 24.2594 49.304 24.0354 49.752L24.2754 48.872V55H22.8194ZM34.9313 55.16C34.1099 55.16 33.4086 54.9787 32.8273 54.616C32.2513 54.248 31.8086 53.7573 31.4993 53.144C31.1953 52.5253 31.0433 51.8373 31.0433 51.08C31.0433 50.3227 31.1953 49.6373 31.4993 49.024C31.8086 48.4053 32.2513 47.9147 32.8273 47.552C33.4086 47.184 34.1099 47 34.9313 47C35.7473 47 36.4459 47.184 37.0273 47.552C37.6086 47.9147 38.0513 48.4053 38.3553 49.024C38.6646 49.6373 38.8193 50.3227 38.8193 51.08C38.8193 51.8373 38.6646 52.5253 38.3553 53.144C38.0513 53.7573 37.6086 54.248 37.0273 54.616C36.4459 54.9787 35.7473 55.16 34.9313 55.16ZM34.9313 53.88C35.7099 53.88 36.3073 53.6347 36.7233 53.144C37.1393 52.648 37.3473 51.96 37.3473 51.08C37.3473 50.2 37.1393 49.5147 36.7233 49.024C36.3073 48.528 35.7099 48.28 34.9313 48.28C34.1579 48.28 33.5606 48.528 33.1393 49.024C32.7233 49.5147 32.5153 50.2 32.5153 51.08C32.5153 51.96 32.7233 52.648 33.1393 53.144C33.5606 53.6347 34.1579 53.88 34.9313 53.88ZM43.7281 55.16C42.9068 55.16 42.2055 54.9787 41.6241 54.616C41.0481 54.248 40.6055 53.7573 40.2961 53.144C39.9921 52.5253 39.8401 51.8373 39.8401 51.08C39.8401 50.3227 39.9921 49.6373 40.2961 49.024C40.6055 48.4053 41.0481 47.9147 41.6241 47.552C42.2055 47.184 42.9068 47 43.7281 47C44.5441 47 45.2428 47.184 45.8241 47.552C46.4055 47.9147 46.8481 48.4053 47.1521 49.024C47.4615 49.6373 47.6161 50.3227 47.6161 51.08C47.6161 51.8373 47.4615 52.5253 47.1521 53.144C46.8481 53.7573 46.4055 54.248 45.8241 54.616C45.2428 54.9787 44.5441 55.16 43.7281 55.16ZM43.7281 53.88C44.5068 53.88 45.1041 53.6347 45.5201 53.144C45.9361 52.648 46.1441 51.96 46.1441 51.08C46.1441 50.2 45.9361 49.5147 45.5201 49.024C45.1041 48.528 44.5068 48.28 43.7281 48.28C42.9548 48.28 42.3575 48.528 41.9361 49.024C41.5201 49.5147 41.3121 50.2 41.3121 51.08C41.3121 51.96 41.5201 52.648 41.9361 53.144C42.3575 53.6347 42.9548 53.88 43.7281 53.88ZM51.325 55.16C50.6317 55.16 50.0557 55.0773 49.597 54.912C49.1437 54.7467 48.8237 54.6 48.637 54.472L48.813 53.08C48.9837 53.2293 49.285 53.4 49.717 53.592C50.149 53.784 50.6637 53.88 51.261 53.88C51.7677 53.88 52.1543 53.7947 52.421 53.624C52.693 53.4533 52.829 53.2133 52.829 52.904C52.829 52.632 52.741 52.4133 52.565 52.248C52.3943 52.0773 52.1863 51.944 51.941 51.848C51.701 51.7467 51.4743 51.6667 51.261 51.608C50.9037 51.512 50.533 51.392 50.149 51.248C49.7703 51.0987 49.4503 50.8773 49.189 50.584C48.9277 50.2907 48.797 49.88 48.797 49.352C48.797 48.952 48.893 48.5733 49.085 48.216C49.277 47.8533 49.589 47.56 50.021 47.336C50.453 47.112 51.0263 47 51.741 47C52.2637 47 52.6877 47.056 53.013 47.168C53.3437 47.2747 53.629 47.3893 53.869 47.512L53.693 48.824C53.4637 48.632 53.197 48.4693 52.893 48.336C52.589 48.2027 52.2157 48.136 51.773 48.136C51.325 48.136 50.9597 48.2213 50.677 48.392C50.3943 48.5573 50.253 48.824 50.253 49.192C50.253 49.56 50.4023 49.8213 50.701 49.976C51.005 50.1307 51.4637 50.3013 52.077 50.488C52.269 50.5413 52.4903 50.6187 52.741 50.72C52.997 50.8213 53.245 50.9573 53.485 51.128C53.725 51.2987 53.9223 51.5227 54.077 51.8C54.237 52.072 54.317 52.4133 54.317 52.824C54.317 53.1707 54.2343 53.5253 54.069 53.888C53.9037 54.2453 53.605 54.5467 53.173 54.792C52.741 55.0373 52.125 55.16 51.325 55.16ZM59.486 55.16C58.5633 55.16 57.7873 54.9707 57.158 54.592C56.5287 54.2133 56.0513 53.712 55.726 53.088C55.406 52.4587 55.246 51.768 55.246 51.016C55.246 50.2853 55.3953 49.616 55.694 49.008C55.998 48.4 56.4353 47.9147 57.006 47.552C57.582 47.184 58.2753 47 59.086 47C59.7367 47 60.3153 47.1307 60.822 47.392C61.334 47.648 61.734 48.024 62.022 48.52C62.3153 49.0107 62.462 49.608 62.462 50.312C62.462 50.424 62.4567 50.5467 62.446 50.68C62.4407 50.808 62.4247 50.9413 62.398 51.08H56.718C56.7873 51.8053 56.9607 52.3707 57.238 52.776C57.5153 53.1813 57.8647 53.4667 58.286 53.632C58.7073 53.7973 59.166 53.88 59.662 53.88C60.0247 53.88 60.4033 53.8427 60.798 53.768C61.1927 53.6933 61.566 53.576 61.918 53.416L62.11 54.552C61.806 54.6853 61.4353 54.8213 60.998 54.96C60.5607 55.0933 60.0567 55.16 59.486 55.16ZM56.846 50.088H60.974C60.974 49.72 60.9047 49.4 60.766 49.128C60.6273 48.856 60.4167 48.648 60.134 48.504C59.8513 48.3547 59.4913 48.28 59.054 48.28C58.414 48.28 57.9207 48.44 57.574 48.76C57.2327 49.0747 56.99 49.5173 56.846 50.088ZM67.8113 55V43.8H74.6433V45.176H69.3313V48.456H73.4273V49.832H69.3313V55H67.8113ZM75.7729 55V47.16H77.2129V55H75.7729ZM75.7729 45.4V43.8H77.2129V45.4H75.7729ZM81.1795 55.16C80.6728 55.16 80.2702 55.0693 79.9715 54.888C79.6782 54.7013 79.4675 54.464 79.3395 54.176C79.2115 53.888 79.1475 53.5867 79.1475 53.272V43H80.5875V52.44C80.5875 52.888 80.6168 53.224 80.6755 53.448C80.7342 53.672 80.8515 53.8213 81.0275 53.896C81.2088 53.9707 81.4835 54.008 81.8515 54.008L81.6435 55.16H81.1795ZM86.6266 55.16C85.704 55.16 84.928 54.9707 84.2986 54.592C83.6693 54.2133 83.192 53.712 82.8666 53.088C82.5466 52.4587 82.3866 51.768 82.3866 51.016C82.3866 50.2853 82.536 49.616 82.8346 49.008C83.1386 48.4 83.576 47.9147 84.1466 47.552C84.7226 47.184 85.416 47 86.2266 47C86.8773 47 87.456 47.1307 87.9626 47.392C88.4746 47.648 88.8746 48.024 89.1626 48.52C89.456 49.0107 89.6026 49.608 89.6026 50.312C89.6026 50.424 89.5973 50.5467 89.5866 50.68C89.5813 50.808 89.5653 50.9413 89.5386 51.08H83.8586C83.928 51.8053 84.1013 52.3707 84.3786 52.776C84.656 53.1813 85.0053 53.4667 85.4266 53.632C85.848 53.7973 86.3066 53.88 86.8026 53.88C87.1653 53.88 87.544 53.8427 87.9386 53.768C88.3333 53.6933 88.7066 53.576 89.0586 53.416L89.2506 54.552C88.9466 54.6853 88.576 54.8213 88.1386 54.96C87.7013 55.0933 87.1973 55.16 86.6266 55.16ZM83.9866 50.088H88.1146C88.1146 49.72 88.0453 49.4 87.9066 49.128C87.768 48.856 87.5573 48.648 87.2746 48.504C86.992 48.3547 86.632 48.28 86.1946 48.28C85.5546 48.28 85.0613 48.44 84.7146 48.76C84.3733 49.0747 84.1306 49.5173 83.9866 50.088ZM93.2781 55.16C92.5848 55.16 92.0088 55.0773 91.5501 54.912C91.0968 54.7467 90.7768 54.6 90.5901 54.472L90.7661 53.08C90.9368 53.2293 91.2381 53.4 91.6701 53.592C92.1021 53.784 92.6168 53.88 93.2141 53.88C93.7208 53.88 94.1075 53.7947 94.3741 53.624C94.6461 53.4533 94.7821 53.2133 94.7821 52.904C94.7821 52.632 94.6941 52.4133 94.5181 52.248C94.3475 52.0773 94.1395 51.944 93.8941 51.848C93.6541 51.7467 93.4275 51.6667 93.2141 51.608C92.8568 51.512 92.4861 51.392 92.1021 51.248C91.7235 51.0987 91.4035 50.8773 91.1421 50.584C90.8808 50.2907 90.7501 49.88 90.7501 49.352C90.7501 48.952 90.8461 48.5733 91.0381 48.216C91.2301 47.8533 91.5421 47.56 91.9741 47.336C92.4061 47.112 92.9795 47 93.6941 47C94.2168 47 94.6408 47.056 94.9661 47.168C95.2968 47.2747 95.5821 47.3893 95.8221 47.512L95.6461 48.824C95.4168 48.632 95.1501 48.4693 94.8461 48.336C94.5421 48.2027 94.1688 48.136 93.7261 48.136C93.2781 48.136 92.9128 48.2213 92.6301 48.392C92.3475 48.5573 92.2061 48.824 92.2061 49.192C92.2061 49.56 92.3555 49.8213 92.6541 49.976C92.9581 50.1307 93.4168 50.3013 94.0301 50.488C94.2221 50.5413 94.4435 50.6187 94.6941 50.72C94.9501 50.8213 95.1981 50.9573 95.4381 51.128C95.6781 51.2987 95.8755 51.5227 96.0301 51.8C96.1901 52.072 96.2701 52.4133 96.2701 52.824C96.2701 53.1707 96.1875 53.5253 96.0221 53.888C95.8568 54.2453 95.5581 54.5467 95.1261 54.792C94.6941 55.0373 94.0781 55.16 93.2781 55.16Z" fill="#18A999"/>
</svg>
