<svg width="20" height="20" viewBox="0 0 20 20" fill="none" xmlns="http://www.w3.org/2000/svg">
<path d="M0 2C0 0.895431 0.895431 0 2 0H18C19.1046 0 20 0.895431 20 2V18C20 19.1046 19.1046 20 18 20H2C0.895431 20 0 19.1046 0 18V2Z" fill="#18A999"/>
<path d="M15.833 9.16663H4.16634C3.94533 9.16663 3.73337 9.25442 3.57709 9.4107C3.42081 9.56698 3.33301 9.77895 3.33301 9.99996C3.33301 10.221 3.42081 10.4329 3.57709 10.5892C3.73337 10.7455 3.94533 10.8333 4.16634 10.8333H15.833C16.054 10.8333 16.266 10.7455 16.4223 10.5892C16.5785 10.4329 16.6663 10.221 16.6663 9.99996C16.6663 9.77895 16.5785 9.56698 16.4223 9.4107C16.266 9.25442 16.054 9.16663 15.833 9.16663Z" fill="white"/>
</svg>
