<svg width="24" height="24" viewBox="0 0 24 24" fill="none" xmlns="http://www.w3.org/2000/svg">
<g clip-path="url(#clip0_306_13456)">
<path d="M23.2886 5.58375C23.2879 5.58263 23.2882 5.58113 23.2875 5.58L23.2845 5.57625C23.0793 5.25716 22.7899 5.00099 22.4482 4.836L12.9082 0.205502C12.3427 -0.0682477 11.6617 -0.0689977 11.0839 0.205502L1.54048 4.83825C1.20437 5.00698 0.918074 5.26045 0.70985 5.57363C0.707975 5.57663 0.707975 5.58 0.7061 5.583C0.705725 5.58263 0.704975 5.583 0.704225 5.58225C0.489317 5.92205 0.374913 6.3157 0.374225 6.71775V17.271C0.372569 17.6629 0.481473 18.0473 0.68843 18.3801C0.895387 18.7129 1.19201 18.9806 1.54423 19.1524L11.0887 23.7926C11.3728 23.9261 11.6824 23.9968 11.9962 24C12.3 24 12.6135 23.928 12.9094 23.79L22.4482 19.152C22.8023 18.9818 23.1009 18.7147 23.3093 18.3817C23.5177 18.0487 23.6274 17.6635 23.6257 17.2706V6.71738C23.6258 6.31479 23.5086 5.92089 23.2886 5.58375ZM8.10785 2.5125L18.4616 7.54313L15.8891 8.79375L5.5346 3.76313L8.10785 2.5125ZM11.4191 0.903752C11.5989 0.818091 11.7954 0.773514 11.9946 0.773254C12.1937 0.772995 12.3904 0.81706 12.5704 0.902252L22.1092 5.53238C22.1872 5.56988 22.2596 5.6145 22.3267 5.6655L19.3481 7.113L8.99248 2.08125L11.4191 0.903752ZM1.88248 5.53238L4.6451 4.19138L15.003 9.22388L11.9966 10.6849L2.93623 6.28275L1.66798 5.66663C1.73476 5.61513 1.80634 5.57018 1.88173 5.53238H1.88248ZM1.88473 18.4571C1.66291 18.3485 1.47618 18.1796 1.34592 17.9697C1.21566 17.7599 1.14715 17.5176 1.14823 17.2706V6.71738C1.14823 6.58013 1.17073 6.44063 1.21385 6.30675L11.6096 11.358V23.1653C11.5451 23.1465 1.88473 18.4571 1.88473 18.4571ZM22.8517 17.2706C22.8527 17.5182 22.7835 17.7611 22.652 17.9709C22.5206 18.1808 22.3324 18.3491 22.1092 18.4564C22.1092 18.4564 12.4489 23.1458 12.3836 23.1653V11.3576L15.5025 9.84263V13.2289C15.5025 13.3658 15.5457 13.4992 15.6259 13.6101C15.7061 13.721 15.8193 13.8038 15.9493 13.8468C16.0793 13.8897 16.2195 13.8906 16.35 13.8493C16.4805 13.808 16.5946 13.7266 16.6762 13.6166L17.7536 12.1616L18.858 12.576C18.9565 12.6135 19.0627 12.6262 19.1673 12.6132C19.2719 12.6001 19.3717 12.5616 19.458 12.501C19.5443 12.4412 19.6149 12.3613 19.6635 12.2682C19.7122 12.1752 19.7375 12.0717 19.7374 11.9666V7.785L22.7839 6.30488C22.8285 6.43838 22.8517 6.57863 22.8517 6.71738V17.2706ZM18.963 8.16488V11.7889L17.7517 11.3344C17.673 11.3046 17.5868 11.3014 17.5061 11.3253C17.4254 11.3492 17.3548 11.3989 17.3051 11.4668L16.2769 12.8554V9.46913L18.963 8.16488Z" fill="white"/>
</g>
<defs>
<clipPath id="clip0_306_13456">
<rect width="24" height="24" fill="white"/>
</clipPath>
</defs>
</svg>
