<svg width="24" height="24" viewBox="0 0 24 24" fill="none" xmlns="http://www.w3.org/2000/svg">
<g clip-path="url(#clip0_306_14981)">
<path d="M22.4711 13.1445L19.125 11.7499V10.7486C19.5856 10.4843 19.9844 10.1246 20.2949 9.69372C20.6053 9.26282 20.8201 8.77061 20.925 8.25H21C21.2984 8.25408 21.5861 8.13947 21.8 7.93137C22.0139 7.72328 22.1363 7.43875 22.1404 7.14038C22.1445 6.84201 22.0298 6.55424 21.8217 6.34038C21.6136 6.12652 21.3291 6.00408 21.0308 6L21.3983 5.148C21.7123 4.41996 21.7283 3.59782 21.443 2.85807C21.1576 2.11833 20.5936 1.51994 19.872 1.19138L18.825 0.71513C18.2055 0.440072 17.5242 0.333768 16.8504 0.407004C16.1765 0.480239 15.534 0.730407 14.988 1.13213L14.4045 1.57238C13.8087 1.72582 13.297 2.10705 12.9795 2.634C12.8041 2.9251 12.6947 3.25109 12.659 3.58904C12.6232 3.92698 12.662 4.26866 12.7725 4.59C12.2064 4.47676 11.6221 4.49098 11.0621 4.63163C11.2224 3.95124 11.1415 3.2363 10.8333 2.60892C10.525 1.98154 10.0085 1.48064 9.372 1.19175L8.325 0.71513C7.70548 0.440072 7.02423 0.333768 6.35036 0.407004C5.67649 0.480239 5.03397 0.730407 4.488 1.13213L3.9045 1.57238C3.56655 1.65874 3.25222 1.81967 2.98458 2.04338C2.71695 2.26709 2.50281 2.54788 2.35787 2.86516C2.21293 3.18244 2.14088 3.52815 2.147 3.87691C2.15313 4.22567 2.23727 4.56863 2.39325 4.88063L2.9535 6C2.65513 6.00617 2.37144 6.13061 2.16482 6.34595C1.9582 6.56129 1.84559 6.84989 1.85175 7.14825C1.85792 7.44662 1.98236 7.73032 2.1977 7.93694C2.41304 8.14356 2.70163 8.25617 3 8.25H3.075C3.18031 8.77035 3.39533 9.26228 3.70571 9.693C4.01609 10.1237 4.41471 10.4833 4.875 10.7479V11.7499L1.52888 13.1445C1.18682 13.2863 0.894557 13.5265 0.689139 13.8346C0.48372 14.1427 0.37439 14.5048 0.375003 14.8751V19.875C0.375003 19.9745 0.414511 20.0698 0.484838 20.1402C0.555164 20.2105 0.650546 20.25 0.750003 20.25H3.375V23.25C3.375 23.3495 3.41451 23.4448 3.48484 23.5152C3.55516 23.5855 3.65055 23.625 3.75 23.625H20.25C20.3495 23.625 20.4448 23.5855 20.5152 23.5152C20.5855 23.4448 20.625 23.3495 20.625 23.25V20.25H23.25C23.3495 20.25 23.4448 20.2105 23.5152 20.1402C23.5855 20.0698 23.625 19.9745 23.625 19.875V14.8751C23.6256 14.5048 23.5163 14.1427 23.3109 13.8346C23.1054 13.5265 22.8132 13.2863 22.4711 13.1445ZM13.2649 5.52263L14.3115 6C14.8544 6.24731 15.2787 6.6976 15.4933 7.25421C15.7079 7.81082 15.6957 8.42939 15.4594 8.97713L15.3469 9.234L14.9625 8.45738C14.938 8.40792 14.9029 8.36448 14.8596 8.33016C14.8164 8.29585 14.7661 8.2715 14.7124 8.25885C14.6587 8.24621 14.6028 8.24558 14.5488 8.25702C14.4948 8.26845 14.444 8.29167 14.4 8.325L13.8 8.775C13.2807 9.16447 12.6491 9.375 12 9.375C11.3509 9.375 10.7193 9.16447 10.2 8.775L9.6 8.325C9.55622 8.29185 9.50562 8.26883 9.45186 8.25761C9.3981 8.24639 9.34252 8.24725 9.28913 8.26013C9.23558 8.27268 9.18545 8.29686 9.14229 8.33095C9.09913 8.36503 9.064 8.4082 9.03938 8.45738L8.625 9.28913L8.31525 8.67C8.19442 8.4283 8.13735 8.15972 8.14947 7.88976C8.16159 7.61981 8.24249 7.35742 8.38449 7.12751C8.5265 6.8976 8.72489 6.70779 8.96086 6.57609C9.19682 6.44439 9.46252 6.37517 9.73275 6.375C10.0216 6.37473 10.3061 6.4459 10.5608 6.58219C10.8155 6.71847 11.0326 6.91564 11.1926 7.15613L11.3104 7.33313L11.9344 6.91688L11.8166 6.74025C11.4833 6.24087 10.9813 5.87824 10.4025 5.71875C10.8279 5.45624 11.3108 5.3012 11.8095 5.26703C12.3082 5.23286 12.8077 5.32058 13.2649 5.52263ZM15.75 10.875H16.125C16.2245 10.875 16.3198 10.9145 16.3902 10.9848C16.4605 11.0552 16.5 11.1505 16.5 11.25C16.5 11.3495 16.4605 11.4448 16.3902 11.5152C16.3198 11.5855 16.2245 11.625 16.125 11.625H15.75V10.875ZM10.875 15.2021C11.6073 15.4326 12.3927 15.4326 13.125 15.2021V15.9698L12 17.0948L10.875 15.9698V15.2021ZM12 14.625C11.2046 14.6241 10.4421 14.3078 9.87967 13.7453C9.31725 13.1829 9.0009 12.4204 9 11.625V10.2135L9.50925 9.19463L9.75 9.375C10.3991 9.86184 11.1886 10.125 12 10.125C12.8114 10.125 13.6009 9.86184 14.25 9.375L14.4908 9.19463L15 10.2135V11.625C14.9991 12.4204 14.6828 13.1829 14.1203 13.7453C13.5579 14.3078 12.7954 14.6241 12 14.625ZM8.25 11.625H7.875C7.77555 11.625 7.68016 11.5855 7.60984 11.5152C7.53951 11.4448 7.5 11.3495 7.5 11.25C7.5 11.1505 7.53951 11.0552 7.60984 10.9848C7.68016 10.9145 7.77555 10.875 7.875 10.875H8.25V11.625ZM3.375 19.14V19.5H1.125V14.8751C1.12487 14.6531 1.19056 14.436 1.31378 14.2513C1.43699 14.0666 1.6122 13.9226 1.81725 13.8375L5.39438 12.3473C5.46286 12.3187 5.52133 12.2704 5.56239 12.2086C5.60344 12.1468 5.62523 12.0742 5.625 12V10.524C5.62302 10.453 5.60177 10.3838 5.56353 10.3239C5.52529 10.264 5.47149 10.2156 5.40788 10.1839C4.95958 9.96089 4.57451 9.62881 4.28803 9.21817C4.00156 8.80753 3.82287 8.33148 3.76838 7.83375C3.75822 7.742 3.71458 7.65721 3.6458 7.59563C3.57702 7.53405 3.48795 7.5 3.39563 7.5H3C2.90055 7.5 2.80516 7.4605 2.73484 7.39017C2.66451 7.31984 2.625 7.22446 2.625 7.125C2.625 7.02555 2.66451 6.93017 2.73484 6.85984C2.80516 6.78951 2.90055 6.75 3 6.75H3.375C3.42447 6.75001 3.47345 6.74022 3.51912 6.72121C3.56479 6.7022 3.60624 6.67434 3.6411 6.63924C3.67596 6.60414 3.70352 6.56249 3.72221 6.51669C3.7409 6.47089 3.75035 6.42185 3.75 6.37238L3.74738 5.99738C3.74703 5.94009 3.73356 5.88365 3.708 5.83238L3.06413 4.545C2.95627 4.32887 2.89923 4.09094 2.89735 3.8494C2.89547 3.60785 2.94881 3.36907 3.05329 3.15128C3.15777 2.93349 3.31063 2.74245 3.5002 2.59275C3.68978 2.44305 3.91105 2.33864 4.14713 2.2875C4.2002 2.27575 4.25017 2.25287 4.29375 2.22038L4.93875 1.73288C5.37642 1.41119 5.89135 1.2109 6.43135 1.15229C6.97135 1.09368 7.51726 1.17883 8.01375 1.39913L9.0615 1.875C9.60438 2.12231 10.0287 2.5726 10.2433 3.12921C10.4579 3.68582 10.4457 4.30439 10.2094 4.85213L10.1486 4.99275C10.0062 5.0716 9.8693 5.15992 9.73875 5.25713L9.14738 5.7C8.81011 5.78665 8.49651 5.94771 8.22959 6.17135C7.96268 6.39499 7.74922 6.67555 7.60487 6.99245C7.46052 7.30934 7.38894 7.65454 7.39539 8.0027C7.40183 8.35087 7.48614 8.69317 7.64213 9.0045L8.20313 10.125H7.875C7.57663 10.125 7.29049 10.2435 7.07951 10.4545C6.86853 10.6655 6.75 10.9516 6.75 11.25C6.75 11.5484 6.86853 11.8345 7.07951 12.0455C7.29049 12.2565 7.57663 12.375 7.875 12.375H8.325C8.4324 12.8939 8.64829 13.3842 8.9585 13.8138C9.26871 14.2433 9.66624 14.6025 10.125 14.8676V15.84L4.74825 17.3336C4.35385 17.4441 4.0063 17.6803 3.75843 18.0063C3.51055 18.3324 3.37592 18.7304 3.375 19.14ZM19.875 22.875H17.625V19.875H16.875V22.875H7.125V19.875H6.375V22.875H4.125V19.14C4.12555 18.8941 4.20645 18.6551 4.35539 18.4595C4.50433 18.2638 4.71313 18.1222 4.95 18.0563L10.3909 16.545L11.736 17.8901C11.8063 17.9604 11.9017 17.9999 12.0011 17.9999C12.1006 17.9999 12.1959 17.9604 12.2663 17.8901L13.6114 16.545L19.05 18.0563C19.2869 18.1222 19.4957 18.2638 19.6446 18.4595C19.7936 18.6551 19.8745 18.8941 19.875 19.14V22.875ZM22.875 19.5H20.625V19.14C20.6241 18.7304 20.4895 18.3324 20.2416 18.0063C19.9937 17.6803 19.6462 17.4441 19.2518 17.3336L13.875 15.84V14.8676C14.3338 14.6025 14.7313 14.2433 15.0415 13.8138C15.3517 13.3842 15.5676 12.8939 15.675 12.375H16.125C16.4234 12.375 16.7095 12.2565 16.9205 12.0455C17.1315 11.8345 17.25 11.5484 17.25 11.25C17.25 10.9516 17.1315 10.6655 16.9205 10.4545C16.7095 10.2435 16.4234 10.125 16.125 10.125H15.7808L16.1483 9.27338C16.4623 8.54533 16.4783 7.72319 16.193 6.98345C15.9076 6.2437 15.3436 5.64532 14.622 5.31675L13.752 4.92038L13.5645 4.54538C13.4566 4.32925 13.3995 4.09132 13.3975 3.84975C13.3956 3.60818 13.4489 3.36936 13.5533 3.15153C13.6578 2.93369 13.8106 2.74261 14.0002 2.59287C14.1898 2.44312 14.411 2.33868 14.6471 2.2875C14.7002 2.27575 14.7502 2.25287 14.7938 2.22038L15.4388 1.73288C15.8764 1.41119 16.3913 1.2109 16.9313 1.15229C17.4714 1.09368 18.0173 1.17883 18.5138 1.39913L19.5615 1.875C20.1044 2.12231 20.5287 2.5726 20.7433 3.12921C20.9579 3.68582 20.9457 4.30439 20.7094 4.85213L20.2781 5.85C20.2577 5.89736 20.2472 5.94842 20.2474 6L20.25 6.375C20.25 6.47446 20.2895 6.56984 20.3598 6.64017C20.4302 6.7105 20.5255 6.75 20.625 6.75H21C21.0995 6.75 21.1948 6.78951 21.2652 6.85984C21.3355 6.93017 21.375 7.02555 21.375 7.125C21.375 7.22446 21.3355 7.31984 21.2652 7.39017C21.1948 7.4605 21.0995 7.5 21 7.5H20.6044C20.5121 7.5 20.423 7.53405 20.3542 7.59563C20.2854 7.65721 20.2418 7.742 20.2316 7.83375C20.1769 8.33337 19.9971 8.8111 19.7086 9.2227C19.4202 9.63429 19.0326 9.96644 18.5816 10.1884C18.5191 10.2194 18.4666 10.2673 18.4298 10.3266C18.393 10.3859 18.3735 10.4542 18.3735 10.524V12C18.3735 12.074 18.3954 12.1464 18.4364 12.208C18.4775 12.2696 18.5358 12.3176 18.6041 12.3461L22.1828 13.8375C22.3878 13.9226 22.563 14.0666 22.6862 14.2513C22.8094 14.436 22.8751 14.6531 22.875 14.8751V19.5Z" fill="white"/>
</g>
<defs>
<clipPath id="clip0_306_14981">
<rect width="24" height="24" fill="white"/>
</clipPath>
</defs>
</svg>
