<svg width="24" height="24" viewBox="0 0 24 24" fill="none" xmlns="http://www.w3.org/2000/svg">
<g clip-path="url(#clip0_306_14968)">
<path fill-rule="evenodd" clip-rule="evenodd" d="M9.57512 12.1898C7.15684 12.1898 5.18848 10.4042 5.18848 8.19683V6.72055C5.18848 6.52372 5.34313 6.36906 5.53997 6.36906C5.73681 6.36906 5.89146 6.52372 5.89146 6.72055V8.19683C5.89146 10.0387 7.55052 11.5149 9.58918 11.5149C11.6419 11.5149 13.2869 10.0387 13.2869 8.19683V6.48154C13.2869 6.29876 13.4556 6.13004 13.6384 6.13004C13.8352 6.13004 13.9899 6.29876 13.9899 6.48154V8.19683C13.9336 10.4042 11.9934 12.1898 9.57512 12.1898Z" fill="white"/>
<path fill-rule="evenodd" clip-rule="evenodd" d="M5.5251 7.07206H5.48292C5.3845 7.058 5.30014 7.01582 5.2439 6.93146C5.18766 6.86116 4.03476 5.20211 4.42844 3.68366C4.59715 2.99473 5.04707 2.46046 5.77817 2.06678C6.00313 1.57469 6.91701 0.0702988 9.37747 0.463972C11.2474 0.843585 13.4267 1.0123 13.736 0.702988C13.8344 0.604569 13.9609 0.57645 14.0875 0.604569C14.214 0.646749 14.3124 0.745167 14.3265 0.857645C14.3827 1.1529 14.8327 3.72583 13.9188 4.69596L13.9328 6.73462C13.9328 6.86116 13.8766 6.97364 13.7782 7.02988C13.6798 7.08612 13.5532 7.11424 13.4548 7.058L12.1613 6.42531C12.0066 6.35501 11.9223 6.17223 11.9926 6.00352C12.0207 5.87698 12.1191 5.46924 11.9645 5.25835C11.8942 5.14587 11.7395 5.08963 11.5005 5.06151H7.15603C7.05761 5.08963 6.73424 5.24429 6.79047 5.86292C6.80453 5.9754 6.7483 6.07381 6.66394 6.15817L5.70787 6.9877C5.69381 7.058 5.62352 7.07206 5.5251 7.07206ZM8.61824 1.06854C6.86077 1.06854 6.3968 2.36204 6.38274 2.41828C6.34056 2.48858 6.28432 2.57294 6.19996 2.61511C5.5954 2.89631 5.22984 3.30404 5.08924 3.83831C4.87835 4.71002 5.32826 5.70826 5.5954 6.21441L6.12967 5.75044C6.10155 4.79438 6.72018 4.44288 7.09979 4.38664H11.5427C12.1472 4.41476 12.4144 4.66784 12.569 4.89279C12.8081 5.24429 12.7799 5.65202 12.7237 5.94728L13.258 6.21441L13.2298 4.55536C13.2298 4.45694 13.272 4.34446 13.3704 4.28823C13.8766 3.89455 13.8625 2.47452 13.7219 1.42004C12.5269 1.72935 10.0945 1.30756 9.26499 1.12478C9.04004 1.09666 8.81508 1.06854 8.61824 1.06854Z" fill="white"/>
<path fill-rule="evenodd" clip-rule="evenodd" d="M7.99992 7.43761H7.55C7.35317 7.43761 7.19851 7.28295 7.19851 7.08611C7.19851 6.88928 7.35317 6.73462 7.55 6.73462H7.99992C8.18269 6.73462 8.35141 6.88928 8.35141 7.08611C8.35141 7.28295 8.18269 7.43761 7.99992 7.43761ZM11.2618 7.43761H10.8119C10.6291 7.43761 10.4744 7.28295 10.4744 7.08611C10.4744 6.88928 10.6291 6.73462 10.8119 6.73462H11.2618C11.4586 6.73462 11.6133 6.88928 11.6133 7.08611C11.6133 7.28295 11.4446 7.43761 11.2618 7.43761ZM8.42171 18.3339C8.35141 18.3339 8.25299 18.2917 8.18269 18.2355L4.68181 14.9033C4.5834 14.8049 4.54122 14.6643 4.59746 14.5378L5.68006 11.754C5.70818 11.6555 5.80659 11.5571 5.93313 11.529C6.04561 11.5149 6.15809 11.529 6.24245 11.6134L9.68709 14.9174C9.7855 15.0158 9.82768 15.1564 9.77144 15.297L8.75914 18.0808C8.71696 18.1933 8.61855 18.2777 8.52013 18.2917C8.46389 18.3339 8.43577 18.3339 8.42171 18.3339ZM5.30044 14.594L8.26705 17.3919L9.02628 15.3111L6.10185 12.5132L5.30044 14.594Z" fill="white"/>
<path fill-rule="evenodd" clip-rule="evenodd" d="M10.4319 18.3339H10.3476C10.2351 18.3198 10.1507 18.2214 10.1226 18.123L9.11031 15.3251C9.06813 15.1986 9.08219 15.058 9.18061 14.9596L12.6252 11.6555C12.7096 11.5712 12.8221 11.529 12.9486 11.5712C13.0611 11.5852 13.1314 11.6696 13.2017 11.782L14.2702 14.5659C14.3265 14.7065 14.2843 14.8471 14.1859 14.9455L10.685 18.2777C10.6006 18.3198 10.5303 18.3339 10.4319 18.3339ZM9.82736 15.297L10.5866 17.3778L13.5391 14.5659L12.7518 12.485L9.82736 15.297Z" fill="white"/>
<path fill-rule="evenodd" clip-rule="evenodd" d="M18.4745 23.5923H0.351494C0.154657 23.5923 0 23.4376 0 23.2408V18.9104C0 16.3515 2.0949 14.2847 4.66784 14.2847H4.92091C5.03339 14.2847 5.14587 14.3409 5.20211 14.4394C5.27241 14.5378 5.27241 14.6643 5.23023 14.7627L5.20211 14.819C5.13181 15.0018 4.92091 15.058 4.76626 14.9877C4.73814 14.9877 4.73814 14.9596 4.72408 14.9596H4.6819C2.47452 14.9596 0.702988 16.7311 0.702988 18.9104V22.8893H18.1511V18.9104C18.1511 16.7311 16.3515 14.9596 14.1722 14.9596H14.1301C14.116 14.9596 14.116 14.9877 14.0879 14.9877C13.9192 15.058 13.7223 15.0018 13.638 14.819L13.6239 14.7627C13.5677 14.6643 13.5817 14.5378 13.638 14.4394C13.7083 14.3409 13.8207 14.2847 13.9332 14.2847H14.1863C16.7592 14.2847 18.8401 16.3655 18.8401 18.9104V23.2408C18.826 23.4376 18.6714 23.5923 18.4745 23.5923Z" fill="white"/>
<path fill-rule="evenodd" clip-rule="evenodd" d="M9.42047 23.5923C9.22364 23.5923 9.06898 23.4376 9.06898 23.2408C9.11116 20.3726 9.13928 15.7188 9.08304 15.297C9.04086 15.1142 9.12522 14.9455 9.29394 14.8893C9.47671 14.819 9.67355 14.9034 9.72979 15.0721C9.80009 15.297 9.80009 18.0387 9.74385 23.2408C9.77197 23.4376 9.61731 23.5923 9.42047 23.5923ZM6.53823 20.9069H2.92487C2.72803 20.9069 2.57337 20.7522 2.57337 20.5554V19.0932C2.57337 18.8963 2.72803 18.7417 2.92487 18.7417H6.53823C6.721 18.7417 6.88972 18.8963 6.88972 19.0932V20.5554C6.88972 20.7522 6.721 20.9069 6.53823 20.9069ZM3.27636 20.2179H6.20079V19.4447H3.27636V20.2179ZM15.9301 20.9069H12.3168C12.1199 20.9069 11.9653 20.7522 11.9653 20.5554V19.0932C11.9653 18.8963 12.1199 18.7417 12.3168 18.7417H15.9301C16.1129 18.7417 16.2816 18.8963 16.2816 19.0932V20.5554C16.2535 20.7522 16.0989 20.9069 15.9301 20.9069ZM12.6542 20.2179H15.5786V19.4447H12.6542V20.2179ZM2.60149 23.5923C2.40466 23.5923 2.25 23.4376 2.25 23.2408V21.7223C2.25 21.5255 2.40466 21.3708 2.60149 21.3708C2.79833 21.3708 2.95299 21.5255 2.95299 21.7223V23.2408C2.92487 23.4376 2.79833 23.5923 2.60149 23.5923ZM16.2535 23.5923C16.0567 23.5923 15.902 23.4376 15.902 23.2408V21.7223C15.902 21.5255 16.0567 21.3708 16.2535 21.3708C16.4504 21.3708 16.605 21.5255 16.605 21.7223V23.2408C16.605 23.4376 16.4504 23.5923 16.2535 23.5923ZM7.31151 13.5396C7.11468 13.5396 6.96002 13.3849 6.96002 13.1881L7.04438 11.2619C7.04438 11.065 7.21309 10.9244 7.39587 10.9244C7.57865 10.9244 7.71924 11.0791 7.71924 11.2759L7.64895 13.2021C7.66301 13.3849 7.50835 13.5396 7.31151 13.5396ZM11.4873 13.5817C11.3045 13.5817 11.1498 13.4411 11.1498 13.2724L11.0373 11.4868C11.0092 11.3041 11.1639 11.1494 11.3467 11.1213C11.5435 11.1072 11.6982 11.2619 11.7122 11.4306L11.8388 13.2021C11.8528 13.399 11.6982 13.5536 11.5154 13.5817H11.4873ZM19.2342 9.13885C18.6156 9.13885 18.0813 8.60458 18.0813 7.98595C18.0813 7.78912 18.2359 7.63446 18.4328 7.63446C18.6296 7.63446 18.7843 7.78912 18.7843 7.98595C18.7843 8.25309 18.9811 8.44992 19.2623 8.44992C19.5154 8.44992 19.7263 8.23903 19.7263 7.98595C19.7263 7.67664 19.6279 7.6204 19.1779 7.52198C18.7702 7.42356 18.1094 7.26891 18.1094 6.38314C18.1094 5.75045 18.6156 5.2443 19.2623 5.2443C19.895 5.2443 20.4011 5.76451 20.4011 6.38314C20.4011 6.57998 20.2465 6.73463 20.0496 6.73463C19.8528 6.73463 19.6982 6.57998 19.6982 6.38314C19.6982 6.13007 19.4873 5.91917 19.2342 5.91917C18.9811 5.91917 18.7702 6.13007 18.7702 6.38314C18.7702 6.70652 18.8686 6.76275 19.3185 6.86117C19.7263 6.95959 20.3871 7.11425 20.3871 7.98595C20.4011 8.6327 19.8809 9.13885 19.2342 9.13885Z" fill="white"/>
<path fill-rule="evenodd" clip-rule="evenodd" d="M19.2333 5.9051C19.0365 5.9051 18.8818 5.75044 18.8818 5.5536V5.27241C18.8818 5.08963 19.0365 4.93497 19.2333 4.93497C19.4302 4.93497 19.5848 5.08963 19.5848 5.27241V5.5536C19.5848 5.75044 19.4302 5.9051 19.2333 5.9051ZM19.2333 9.4341C19.0365 9.4341 18.8818 9.27944 18.8818 9.0826V8.80141C18.8818 8.60457 19.0365 8.44991 19.2333 8.44991C19.4302 8.44991 19.5848 8.60457 19.5848 8.80141V9.0826C19.5848 9.27944 19.4302 9.4341 19.2333 9.4341Z" fill="white"/>
<path fill-rule="evenodd" clip-rule="evenodd" d="M19.2337 10.6432C17.3497 10.6432 15.7891 9.09666 15.7891 7.18453C15.7891 5.30052 17.3216 3.73989 19.2337 3.73989C21.1458 3.73989 22.6783 5.2724 22.6783 7.18453C22.7065 9.0826 21.1458 10.6432 19.2337 10.6432ZM19.2337 4.41476C17.7152 4.41476 16.4639 5.66608 16.4639 7.18453C16.4639 8.70298 17.7152 9.9543 19.2337 9.9543C20.7522 9.9543 22.0035 8.70298 22.0035 7.18453C22.0175 5.66608 20.7803 4.41476 19.2337 4.41476Z" fill="white"/>
<path fill-rule="evenodd" clip-rule="evenodd" d="M19.2342 11.9227C16.6191 11.9227 14.4961 9.79966 14.4961 7.18455C14.4961 4.58349 16.6191 2.43235 19.2342 2.43235C21.8493 2.43235 23.9864 4.55537 23.9864 7.18455C23.9864 9.79966 21.8634 11.9227 19.2342 11.9227ZM19.2342 3.12128C16.9987 3.12128 15.185 4.94905 15.185 7.18455C15.185 9.43411 16.9987 11.2338 19.2342 11.2338C21.4697 11.2338 23.3116 9.43411 23.3116 7.18455C23.3116 4.94905 21.4697 3.12128 19.2342 3.12128Z" fill="white"/>
</g>
<defs>
<clipPath id="clip0_306_14968">
<rect width="24" height="24" fill="white"/>
</clipPath>
</defs>
</svg>
