<svg width="24" height="24" viewBox="0 0 24 24" fill="none" xmlns="http://www.w3.org/2000/svg">
<path d="M3.616 20C3.168 20 2.78667 19.8427 2.472 19.528C2.15733 19.2133 2 18.8323 2 18.385V14.615C2 14.1683 2.15733 13.7873 2.472 13.472C2.78667 13.1573 3.168 13 3.616 13H4V8.321H3.808C3.572 8.279 3.37833 8.16967 3.227 7.993C3.07567 7.81767 3 7.602 3 7.346V6.077C3 5.78367 3.09967 5.537 3.299 5.337C3.49833 5.137 3.745 5.03767 4.039 5.039H8.962C9.25533 5.039 9.50167 5.13867 9.701 5.338C9.90033 5.53733 10 5.78367 10 6.077V7.347C10 7.60167 9.92433 7.817 9.773 7.993C9.62167 8.16967 9.42833 8.279 9.193 8.321H9V13H15V8.321H14.808C14.572 8.279 14.3783 8.16967 14.227 7.993C14.0757 7.81767 14 7.602 14 7.346V6.077C14 5.78367 14.0997 5.537 14.299 5.337C14.4983 5.137 14.745 5.03767 15.039 5.039H19.961C20.255 5.039 20.5017 5.13867 20.701 5.338C20.9003 5.53733 21 5.78367 21 6.077V7.347C21 7.60167 20.9243 7.817 20.773 7.993C20.6217 8.16967 20.4283 8.279 20.193 8.321H20V13H20.385C20.8317 13 21.2127 13.1573 21.528 13.472C21.8427 13.7867 22 14.168 22 14.616V18.385C22 18.8317 21.8427 19.2127 21.528 19.528C21.2133 19.8427 20.8323 20 20.385 20H3.616ZM15 7.385H20V6.038H15V7.385ZM4 7.385H9V6.038H4V7.385ZM16 13H19V8.385H16V13ZM5 13H8V8.385H5V13ZM3.616 19H20.385C20.5643 19 20.7117 18.9423 20.827 18.827C20.9423 18.7117 21 18.5643 21 18.385V14.615C21 14.4357 20.9423 14.2883 20.827 14.173C20.7117 14.0577 20.5643 14 20.385 14H3.615C3.43567 14 3.28833 14.0577 3.173 14.173C3.05767 14.2883 3 14.436 3 14.616V18.385C3 18.5643 3.05767 18.7117 3.173 18.827C3.28833 18.9423 3.436 19 3.616 19Z" fill="white"/>
</svg>
