<svg width="24" height="24" viewBox="0 0 24 24" fill="none" xmlns="http://www.w3.org/2000/svg">
<g clip-path="url(#clip0_306_14952)">
<path d="M20.7966 4.4C20.7975 4.29444 20.7567 4.19278 20.683 4.1172L16.683 0.1172C16.6457 0.0804709 16.6015 0.0515138 16.553 0.0320119C16.5044 0.01251 16.4525 0.00285225 16.4002 0.0036V0H4.4002C3.73745 0 3.2002 0.53725 3.2002 1.2V22.8C3.2002 23.4627 3.73745 24 4.4002 24H19.6002C20.2629 24 20.8002 23.4627 20.8002 22.8V4.4H20.7966ZM16.8002 1.3656L19.4346 4H17.2002C17.0941 4 16.9924 3.95786 16.9174 3.88284C16.8423 3.80783 16.8002 3.70609 16.8002 3.6V1.3656ZM20.0002 22.8C20.0002 22.9061 19.9581 23.0078 19.883 23.0828C19.808 23.1579 19.7063 23.2 19.6002 23.2H4.4002C4.29411 23.2 4.19237 23.1579 4.11735 23.0828C4.04234 23.0078 4.0002 22.9061 4.0002 22.8V1.2C4.0002 1.09391 4.04234 0.992172 4.11735 0.917157C4.19237 0.842143 4.29411 0.8 4.4002 0.8H16.0002V3.6C16.0002 4.26275 16.5374 4.8 17.2002 4.8H20.0002V22.8Z" fill="white"/>
<path d="M7.2 10.8C6.53725 10.8 6 11.3373 6 12C6 12.6628 6.53725 13.2 7.2 13.2C7.86275 13.2 8.4 12.6628 8.4 12C8.4 11.3373 7.86275 10.8 7.2 10.8ZM7.2 12.4C7.09391 12.4 6.99217 12.3579 6.91716 12.2828C6.84214 12.2078 6.8 12.1061 6.8 12C6.8 11.8939 6.84214 11.7922 6.91716 11.7172C6.99217 11.6421 7.09391 11.6 7.2 11.6C7.30609 11.6 7.40783 11.6421 7.48284 11.7172C7.55786 11.7922 7.6 11.8939 7.6 12C7.6 12.1061 7.55786 12.2078 7.48284 12.2828C7.40783 12.3579 7.30609 12.4 7.2 12.4ZM10 11.6H18V12.4H10V11.6ZM7.2 6.8C6.53725 6.8 6 7.33725 6 8C6 8.66275 6.53725 9.2 7.2 9.2C7.86275 9.2 8.4 8.66275 8.4 8C8.4 7.33725 7.86275 6.8 7.2 6.8ZM7.2 8.4C7.09391 8.4 6.99217 8.35786 6.91716 8.28285C6.84214 8.20783 6.8 8.10609 6.8 8C6.8 7.89392 6.84214 7.79217 6.91716 7.71716C6.99217 7.64215 7.09391 7.6 7.2 7.6C7.30609 7.6 7.40783 7.64215 7.48284 7.71716C7.55786 7.79217 7.6 7.89392 7.6 8C7.6 8.10609 7.55786 8.20783 7.48284 8.28285C7.40783 8.35786 7.30609 8.4 7.2 8.4ZM10 7.6H18V8.4H10V7.6ZM7.2 14.8C6.53725 14.8 6 15.3373 6 16C6 16.6628 6.53725 17.2 7.2 17.2C7.86275 17.2 8.4 16.6628 8.4 16C8.4 15.3373 7.86275 14.8 7.2 14.8ZM7.2 16.4C7.09391 16.4 6.99217 16.3579 6.91716 16.2828C6.84214 16.2078 6.8 16.1061 6.8 16C6.8 15.8939 6.84214 15.7922 6.91716 15.7172C6.99217 15.6421 7.09391 15.6 7.2 15.6C7.30609 15.6 7.40783 15.6421 7.48284 15.7172C7.55786 15.7922 7.6 15.8939 7.6 16C7.6 16.1061 7.55786 16.2078 7.48284 16.2828C7.40783 16.3579 7.30609 16.4 7.2 16.4ZM10 15.6H18V16.4H10V15.6ZM7.2 18.8C6.53725 18.8 6 19.3373 6 20C6 20.6628 6.53725 21.2 7.2 21.2C7.86275 21.2 8.4 20.6628 8.4 20C8.4 19.3373 7.86275 18.8 7.2 18.8ZM7.2 20.4C7.09391 20.4 6.99217 20.3579 6.91716 20.2828C6.84214 20.2078 6.8 20.1061 6.8 20C6.8 19.8939 6.84214 19.7922 6.91716 19.7172C6.99217 19.6421 7.09391 19.6 7.2 19.6C7.30609 19.6 7.40783 19.6421 7.48284 19.7172C7.55786 19.7922 7.6 19.8939 7.6 20C7.6 20.1061 7.55786 20.2078 7.48284 20.2828C7.40783 20.3579 7.30609 20.4 7.2 20.4ZM10 19.6H18V20.4H10V19.6Z" fill="white"/>
</g>
<defs>
<clipPath id="clip0_306_14952">
<rect width="24" height="24" fill="white"/>
</clipPath>
</defs>
</svg>
