<svg width="69" height="68" viewBox="0 0 69 68" fill="none" xmlns="http://www.w3.org/2000/svg">
<path d="M0.5 34C0.5 15.2223 15.7223 0 34.5 0C53.2777 0 68.5 15.2223 68.5 34C68.5 52.7777 53.2777 68 34.5 68C15.7223 68 0.5 52.7777 0.5 34Z" fill="white"/>
<path d="M22.625 27.188V44.3756C22.625 44.667 22.7187 44.9065 22.9061 45.0939C23.0935 45.2813 23.3335 45.375 23.626 45.375H44.3756C44.667 45.375 44.9065 45.2813 45.0939 45.0939C45.2813 44.9065 45.375 44.667 45.375 44.3756V27.188H38.875V38.2185L34 35.781L29.125 38.2185V27.188H22.625ZM23.626 47C22.898 47 22.2783 46.7443 21.767 46.233C21.2557 45.7217 21 45.1025 21 44.3756V26.6648C21 26.3484 21.0504 26.0505 21.1511 25.771C21.2519 25.4915 21.4035 25.2342 21.6061 24.9991L24.1379 21.9604C24.373 21.643 24.6671 21.4035 25.0202 21.2421C25.3734 21.0807 25.752 21 26.1561 21H41.7821C42.1851 21 42.5686 21.0807 42.9326 21.2421C43.2966 21.4035 43.5962 21.6424 43.8312 21.9588L46.3939 25.0625C46.5965 25.2976 46.7481 25.5603 46.8489 25.8506C46.9496 26.1399 47 26.4432 47 26.7606V44.3756C47 45.1015 46.7443 45.7206 46.233 46.233C45.7217 46.7443 45.1025 47 44.3756 47H23.626ZM23.2425 25.563H44.725L42.5638 22.9663C42.4587 22.8623 42.3384 22.7794 42.203 22.7176C42.0676 22.6559 41.9268 22.625 41.7805 22.625H26.187C26.0418 22.625 25.901 22.6564 25.7645 22.7193C25.628 22.7821 25.5088 22.8655 25.407 22.9695L23.2425 25.563ZM30.7484 27.188V35.5616L33.9984 33.9366L37.2484 35.5616V27.1896L30.7484 27.188Z" fill="#A5A5A5"/>
</svg>
