<?xml version="1.0" encoding="UTF-8"?>
<svg xmlns="http://www.w3.org/2000/svg" style="fill: #ffffff;" viewBox="0 0 384.15 769.05">
  <path d="M214.68,9.38c-12.5-12.5-32.8-12.5-45.3,0L9.38,169.37c-12.5,12.5-12.5,32.8,0,45.3,12.5,12.5,32.8,12.5,45.3,0L192.08,77.28l137.4,137.3c12.5,12.5,32.8,12.5,45.3,0s12.5-32.8,0-45.3L214.77,9.27h0l-.1.1ZM374.68,361.37l-160-160c-12.5-12.5-32.8-12.5-45.3,0L9.38,361.37c-12.5,12.5-12.5,32.8,0,45.3s32.8,12.5,45.3,0l137.4-137.4,137.4,137.3c12.5,12.5,32.8,12.5,45.3,0s12.5-32.8,0-45.3h0l-.1.1ZM169.47,759.68c12.5,12.5,32.8,12.5,45.3,0l160-160c12.5-12.5,12.5-32.8,0-45.3s-32.8-12.5-45.3,0l-137.4,137.4-137.4-137.3c-12.5-12.5-32.8-12.5-45.3,0s-12.5,32.8,0,45.3l160,160h0l.1-.1ZM9.48,407.68l160,160c12.5,12.5,32.8,12.5,45.3,0l160-160c12.5-12.5,12.5-32.8,0-45.3s-32.8-12.5-45.3,0l-137.4,137.4L54.68,362.48c-12.5-12.5-32.8-12.5-45.3,0s-12.5,32.8,0,45.3h0l.1-.1Z"/>
</svg>