<?xml version="1.0" encoding="UTF-8"?>
<svg id="Layer_2" data-name="Layer 2" xmlns="http://www.w3.org/2000/svg" viewBox="0 0 218.24 146.51">
  <defs>
    <style>
      .cls-1 {
        fill: #fff;
        stroke-width: 0px;
      }
    </style>
  </defs>
  <g id="box_FINAL" data-name="box FINAL">
    <g>
      <path class="cls-1" d="M218.24,49.28L174.21.2l-30.8,25.89L110.94,0,0,51.5l41,8.75v45.44l100.6,39.83,2.5.99,1.5-1.54,38.81-39.83v-44.58l33.83-11.28ZM173.92,4.37l39.04,43.52-29.23,9.74-31.37-24.35-6.56-5.27,28.12-23.64ZM110.51,3.51l30.21,24.27-98.81,29.59-32.51-6.94L110.51,3.51ZM141.6,141.21l-96.6-38.25v-42.34l96.6-28.93v109.52ZM168.39,96.45l-5.78-10.32h-2.93v10.32h-4.83v-25.67h11.24c1.41,0,2.65.32,3.72.95,1.07.64,1.9,1.53,2.49,2.69.59,1.16.88,2.5.88,4.03s-.29,2.87-.88,4.03c-.59,1.16-1.42,2.06-2.5,2.69-.52.31-1.08.54-1.68.7l6.13,10.58h-5.86Z"/>
      <path class="cls-1" d="M166.99,81.1c.38-.25.67-.6.87-1.06.21-.46.31-.99.33-1.59,0-.6-.1-1.13-.31-1.59-.21-.46-.5-.81-.87-1.06s-.82-.37-1.32-.37h-6.02v6.03h6.02c.49,0,.93-.12,1.31-.37Z"/>
      <path class="cls-1" d="M69.75,73.66c-.68-1.21-1.64-2.14-2.88-2.8-1.24-.66-2.67-.99-4.29-.99h-10.45v26.05h4.91v-10.1h5.54c1.62,0,3.05-.33,4.29-.99,1.24-.66,2.19-1.59,2.88-2.79.68-1.2,1.02-2.59,1.02-4.18s-.34-2.99-1.02-4.19ZM65.3,79.54c-.25.49-.6.87-1.05,1.14-.45.27-.96.4-1.55.4h-5.66v-6.49h5.66c.6,0,1.12.13,1.57.4.45.27.79.65,1.04,1.15.24.5.37,1.07.37,1.71s-.13,1.19-.38,1.68ZM88.61,95.92h5.29l-9.96-26.05h-3.12l-9.96,26.05h5.29l1.46-4.17h9.54l1.46,4.17ZM79.26,87.01l3.11-8.89,3.11,8.89h-6.23ZM110.88,95.92h5.95l-6.23-10.74c.61-.16,1.18-.39,1.71-.71,1.09-.64,1.94-1.56,2.54-2.73s.9-2.54.9-4.09-.3-2.92-.9-4.09c-.6-1.18-1.44-2.09-2.53-2.73-1.09-.65-2.35-.97-3.78-.97h-11.41v26.07h4.91v-10.48h2.98l5.87,10.48ZM102.03,74.58h6.11c.51,0,.96.13,1.34.38.38.25.68.61.89,1.07.21.47.31,1,.31,1.61-.01.61-.12,1.15-.33,1.61-.21.47-.5.82-.89,1.07-.38.25-.82.38-1.33.38h-6.11v-6.13ZM136.56,74.6h-7.09v21.32h-4.91v-21.32h-7.09v-4.73h19.1v4.73Z"/>
    </g>
  </g>
</svg>