<svg width="20" height="20" viewBox="0 0 20 20" fill="none" xmlns="http://www.w3.org/2000/svg">
<rect width="20" height="20" rx="2" fill="#18A999"/>
<path d="M9.9958 17.0479C10.4062 17.0479 10.7494 16.7214 10.7494 16.3197V10.7536H16.1565C16.5583 10.7536 16.9101 10.4107 16.9101 10.0004C16.9101 9.59037 16.5583 9.25537 16.1565 9.25537H10.7494V3.68037C10.7494 3.27894 10.4062 2.95251 9.9958 2.95251C9.5858 2.95251 9.2508 3.27894 9.2508 3.68073V9.25573H3.84366C3.44187 9.25573 3.09009 9.59037 3.09009 10.0004C3.09009 10.4104 3.44187 10.7539 3.84366 10.7539H9.2508V16.32C9.2508 16.7218 9.5858 17.0486 9.9958 17.0486" fill="white"/>
</svg>
