<svg width="20" height="21" viewBox="0 0 20 21" fill="none" xmlns="http://www.w3.org/2000/svg">
<path d="M9.79169 5.49996C9.79207 5.58208 9.77606 5.66345 9.74457 5.73929C9.71309 5.81514 9.66678 5.88393 9.60835 5.94163L5.05002 10.5L9.60835 15.0583C9.71875 15.1768 9.77886 15.3335 9.776 15.4954C9.77314 15.6573 9.70755 15.8118 9.59304 15.9263C9.47853 16.0408 9.32404 16.1064 9.16212 16.1093C9.0002 16.1121 8.8435 16.052 8.72502 15.9416L3.72502 10.9416C3.60798 10.8244 3.54224 10.6656 3.54224 10.5C3.54224 10.3343 3.60798 10.1755 3.72502 10.0583L8.72502 5.0583C8.84221 4.94126 9.00106 4.87551 9.16669 4.87551C9.33231 4.87551 9.49116 4.94126 9.60835 5.0583C9.66678 5.116 9.71309 5.18479 9.74457 5.26064C9.77606 5.33648 9.79207 5.41785 9.79169 5.49996Z" fill="#18A999"/>
<path d="M16.4584 10.5C16.4563 10.6651 16.3897 10.8228 16.273 10.9396C16.1562 11.0563 15.9985 11.1228 15.8334 11.125L4.16675 11.125C4.00099 11.125 3.84202 11.0592 3.72481 10.9419C3.6076 10.8247 3.54175 10.6658 3.54175 10.5C3.54175 10.3342 3.6076 10.1753 3.72481 10.0581C3.84202 9.94085 4.00099 9.875 4.16675 9.875L15.8334 9.875C15.9985 9.87716 16.1562 9.9437 16.273 10.0604C16.3897 10.1772 16.4563 10.3349 16.4584 10.5Z" fill="#18A999"/>
</svg>
