<svg width="44" height="44" viewBox="0 0 44 44" fill="none" xmlns="http://www.w3.org/2000/svg">
<rect x="0.5" y="0.5" width="43" height="43" rx="5.5" fill="#18A999"/>
<rect x="0.5" y="0.5" width="43" height="43" rx="5.5" stroke="#18A999"/>
<path fill-rule="evenodd" clip-rule="evenodd" d="M27.3958 24.9752C28.6491 23.3588 29.2397 21.3255 29.0476 19.2888C28.8555 17.2522 27.895 15.3653 26.3615 14.012C24.8281 12.6586 22.8369 11.9406 20.793 12.0039C18.7491 12.0671 16.8061 12.907 15.3592 14.3526C13.9111 15.7991 13.0688 17.7437 13.004 19.7899C12.9393 21.8362 13.6569 23.8302 15.0107 25.3655C16.3644 26.9008 18.2524 27.8619 20.29 28.053C22.3275 28.2441 24.3612 27.6508 25.9766 26.3939L26.0198 26.4392L30.2833 30.7053C30.3767 30.7988 30.4875 30.8729 30.6095 30.9234C30.7316 30.974 30.8623 31 30.9944 31C31.1264 31 31.2572 30.974 31.3792 30.9234C31.5012 30.8729 31.6121 30.7988 31.7055 30.7053C31.7988 30.6119 31.8729 30.501 31.9235 30.379C31.974 30.2569 32 30.1261 32 29.994C32 29.8619 31.974 29.7311 31.9235 29.609C31.8729 29.4869 31.7988 29.376 31.7055 29.2826L27.441 25.0175L27.3958 24.9752ZM25.3093 15.7753C25.8767 16.3338 26.328 16.9992 26.6371 17.733C26.9463 18.4669 27.1071 19.2548 27.1103 20.0511C27.1136 20.8475 26.9592 21.6366 26.656 22.373C26.3529 23.1093 25.907 23.7784 25.3441 24.3415C24.7812 24.9046 24.1125 25.3507 23.3764 25.6539C22.6403 25.9572 21.8515 26.1116 21.0555 26.1084C20.2594 26.1051 19.4719 25.9443 18.7383 25.635C18.0048 25.3258 17.3396 24.8743 16.7813 24.3066C15.6656 23.1721 15.0433 21.6426 15.0497 20.0511C15.0562 18.4597 15.691 16.9352 16.8159 15.8099C17.9408 14.6845 19.4646 14.0495 21.0555 14.043C22.6463 14.0365 24.1752 14.6591 25.3093 15.7753Z" fill="white"/>
</svg>
