<svg width="68" height="68" viewBox="0 0 68 68" fill="none" xmlns="http://www.w3.org/2000/svg">
<path d="M1 34C1 15.7746 15.7746 1 34 1C52.2254 1 67 15.7746 67 34C67 52.2254 52.2254 67 34 67C15.7746 67 1 52.2254 1 34Z" fill="#18A999" fill-opacity="0.05"/>
<path d="M1 34C1 15.7746 15.7746 1 34 1C52.2254 1 67 15.7746 67 34C67 52.2254 52.2254 67 34 67C15.7746 67 1 52.2254 1 34Z" stroke="#18A999" stroke-width="2"/>
<path d="M24.9815 18.0642C24.9114 18.0642 24.8419 18.078 24.7771 18.1048C24.7123 18.1317 24.6535 18.1711 24.604 18.2208L18.2148 24.606C18.1171 24.7064 18.063 24.8414 18.0642 24.9815V46.2654C18.0642 46.5585 18.3012 46.7934 18.5943 46.7954H38.3221C39.0128 47.6408 39.6875 48.3817 40.1995 48.9198H36.1555C36.0851 48.9193 36.0154 48.9327 35.9502 48.9594C35.8851 48.986 35.8258 49.0253 35.776 49.0749C35.7261 49.1246 35.6866 49.1837 35.6597 49.2488C35.6328 49.3138 35.6191 49.3835 35.6194 49.4539C35.6214 49.7491 35.8624 49.99 36.1575 49.988L46.7874 49.99C46.9302 49.99 47.0672 49.9338 47.1687 49.8334C47.2702 49.733 47.328 49.5967 47.3296 49.4539C47.3298 49.3835 47.3161 49.3138 47.2893 49.2488C47.2624 49.1837 47.2229 49.1246 47.173 49.0749C47.1232 49.0253 47.0639 48.986 46.9988 48.9594C46.9336 48.9327 46.8638 48.9193 46.7935 48.9198H42.7375C43.2997 48.3275 44.0567 47.4942 44.8157 46.5404C45.6148 45.5385 46.5746 44.2193 47.2011 42.886L49.8314 40.2517C49.8811 40.2022 49.9205 40.1433 49.9474 40.0786C49.9743 40.0138 49.9881 39.9443 49.988 39.8742V18.5943C49.9878 18.5244 49.9738 18.4553 49.9468 18.3908C49.9198 18.3264 49.8804 18.2679 49.8308 18.2186C49.7812 18.1694 49.7224 18.1304 49.6577 18.1039C49.5931 18.0775 49.5238 18.0639 49.4539 18.0642H24.9815ZM25.2024 19.1284H33.2762L27.9552 24.4494H19.8754L25.2024 19.1284ZM34.7761 19.1284H38.5951L33.2742 24.4494H29.4632L34.7761 19.1284ZM40.0991 19.1284H48.1749L42.8539 24.4474H34.7821L40.0991 19.1284ZM48.9259 19.8794V39.6553L47.8456 40.7336C47.8556 40.6271 47.8617 40.5187 47.8617 40.4123C47.8617 37.4205 46.0666 35.2218 43.6049 34.4207V25.2044L48.9259 19.8794ZM42.5387 25.5136V34.1677C42.1864 34.1148 41.8307 34.0886 41.4745 34.0894C37.9888 34.0894 35.0933 36.6013 35.0933 40.4143C35.0933 42.0708 36.2298 44.0346 37.4908 45.7313H19.1284V25.5156H27.638V31.3646C27.638 31.7943 28.1419 32.0674 28.5014 31.7803L30.8305 29.9189L33.1597 31.7803C33.5111 32.0594 34.0251 31.8104 34.0251 31.3646V25.5156L42.5387 25.5136ZM28.7082 25.5136H32.9629V30.2563L31.1679 28.8186C31.0737 28.7437 30.9569 28.7029 30.8366 28.7029C30.7162 28.7029 30.5994 28.7437 30.5053 28.8186L28.7042 30.2563L28.7082 25.5136ZM46.7955 40.4123C46.7955 41.8098 45.5927 43.8639 43.9884 45.8758C42.7335 47.45 41.4745 48.707 41.4745 48.707C41.4745 48.707 40.2195 47.4661 38.9646 45.9039C37.539 44.1289 36.1575 41.9483 36.1575 40.4143C36.1575 37.2077 38.563 35.1536 41.4745 35.1536C41.9664 35.1536 42.4423 35.2118 42.9403 35.3343C45.2092 35.9367 46.7955 37.8301 46.7955 40.4143V40.4123ZM21.7869 37.2197C21.6468 37.2208 21.5128 37.277 21.4139 37.3763C21.3151 37.4755 21.2593 37.6097 21.2588 37.7498V43.0728C21.2588 43.3659 21.4958 43.6009 21.7869 43.6029H30.3045C30.4445 43.6018 30.5786 43.5456 30.6774 43.4463C30.7763 43.3471 30.832 43.2129 30.8326 43.0728V37.7498C30.832 37.6097 30.7763 37.4755 30.6774 37.3763C30.5786 37.277 30.4445 37.2208 30.3045 37.2197H21.7869ZM41.4745 37.2197C39.7176 37.2197 38.2859 38.6353 38.2859 40.4123C38.2859 42.1873 39.7176 43.6029 41.4745 43.6029C41.8936 43.6029 42.3086 43.5203 42.6959 43.3599C43.0831 43.1995 43.4349 42.9644 43.7313 42.6681C44.0276 42.3717 44.2627 42.0199 44.4231 41.6327C44.5835 41.2454 44.6661 40.8304 44.6661 40.4113C44.6661 39.9922 44.5835 39.5771 44.4231 39.1899C44.2627 38.8027 44.0276 38.4509 43.7313 38.1545C43.4349 37.8581 43.0831 37.623 42.6959 37.4627C42.3086 37.3023 41.8936 37.2197 41.4745 37.2197ZM22.323 38.2839H29.7684V42.5367H22.323V38.2839ZM41.4745 38.2839C42.6572 38.2839 43.6029 39.2316 43.6029 40.4123C43.6029 41.597 42.6572 42.5367 41.4745 42.5367C40.2918 42.5367 39.3501 41.595 39.3501 40.4143C39.3501 39.2437 40.2938 38.2839 41.4745 38.2839Z" fill="#18A999"/>
</svg>
