<svg width="68" height="68" viewBox="0 0 68 68" fill="none" xmlns="http://www.w3.org/2000/svg">
<rect width="68" height="68" rx="34" fill="white"/>
<path d="M24.9812 18.0642C24.9111 18.0642 24.8417 18.078 24.7769 18.1048C24.7121 18.1317 24.6533 18.1711 24.6038 18.2208L18.2146 24.606C18.1169 24.7064 18.0628 24.8414 18.064 24.9815V46.2654C18.064 46.5585 18.3009 46.7934 18.5941 46.7954H38.3218C39.0125 47.6408 39.6872 48.3817 40.1992 48.9198H36.1553C36.0849 48.9193 36.0151 48.9327 35.95 48.9594C35.8848 48.986 35.8256 49.0253 35.7757 49.0749C35.7259 49.1246 35.6863 49.1837 35.6595 49.2488C35.6326 49.3138 35.6189 49.3835 35.6192 49.4539C35.6212 49.7491 35.8621 49.99 36.1573 49.988L46.7872 49.99C46.9299 49.99 47.0669 49.9338 47.1684 49.8334C47.2699 49.733 47.3277 49.5967 47.3293 49.4539C47.3296 49.3835 47.3159 49.3138 47.289 49.2488C47.2621 49.1837 47.2226 49.1246 47.1728 49.0749C47.1229 49.0253 47.0637 48.986 46.9985 48.9594C46.9334 48.9327 46.8636 48.9193 46.7932 48.9198H42.7372C43.2994 48.3275 44.0564 47.4942 44.8154 46.5404C45.6146 45.5385 46.5744 44.2193 47.2008 42.886L49.8312 40.2517C49.8809 40.2022 49.9203 40.1433 49.9472 40.0786C49.9741 40.0138 49.9879 39.9443 49.9878 39.8742V18.5943C49.9875 18.5244 49.9735 18.4553 49.9465 18.3908C49.9195 18.3264 49.8801 18.2679 49.8305 18.2186C49.7809 18.1694 49.7221 18.1304 49.6575 18.1039C49.5928 18.0775 49.5236 18.0639 49.4537 18.0642H24.9812ZM25.2021 19.1284H33.2759L27.955 24.4494H19.8751L25.2021 19.1284ZM34.7758 19.1284H38.5949L33.2739 24.4494H29.4629L34.7758 19.1284ZM40.0988 19.1284H48.1747L42.8537 24.4474H34.7819L40.0988 19.1284ZM48.9256 19.8794V39.6553L47.8454 40.7336C47.8554 40.6271 47.8614 40.5187 47.8614 40.4123C47.8614 37.4205 46.0663 35.2218 43.6046 34.4207V25.2044L48.9256 19.8794ZM42.5384 25.5136V34.1677C42.1862 34.1148 41.8304 34.0886 41.4742 34.0894C37.9885 34.0894 35.0931 36.6013 35.0931 40.4143C35.0931 42.0708 36.2296 44.0346 37.4905 45.7313H19.1282V25.5156H27.6377V31.3646C27.6377 31.7943 28.1417 32.0674 28.5011 31.7803L30.8303 29.9189L33.1595 31.7803C33.5109 32.0594 34.0249 31.8104 34.0249 31.3646V25.5156L42.5384 25.5136ZM28.7079 25.5136H32.9627V30.2563L31.1676 28.8186C31.0735 28.7437 30.9567 28.7029 30.8363 28.7029C30.716 28.7029 30.5992 28.7437 30.505 28.8186L28.7039 30.2563L28.7079 25.5136ZM46.7952 40.4123C46.7952 41.8098 45.5925 43.8639 43.9882 45.8758C42.7332 47.45 41.4742 48.707 41.4742 48.707C41.4742 48.707 40.2193 47.4661 38.9644 45.9039C37.5387 44.1289 36.1573 41.9483 36.1573 40.4143C36.1573 37.2077 38.5628 35.1536 41.4742 35.1536C41.9662 35.1536 42.4421 35.2118 42.94 35.3343C45.209 35.9367 46.7952 37.8301 46.7952 40.4143V40.4123ZM21.7867 37.2197C21.6466 37.2208 21.5126 37.277 21.4137 37.3763C21.3148 37.4755 21.2591 37.6097 21.2586 37.7498V43.0728C21.2586 43.3659 21.4955 43.6009 21.7867 43.6029H30.3042C30.4443 43.6018 30.5783 43.5456 30.6772 43.4463C30.776 43.3471 30.8318 43.2129 30.8323 43.0728V37.7498C30.8318 37.6097 30.776 37.4755 30.6772 37.3763C30.5783 37.277 30.4443 37.2208 30.3042 37.2197H21.7867ZM41.4742 37.2197C39.7173 37.2197 38.2857 38.6353 38.2857 40.4123C38.2857 42.1873 39.7173 43.6029 41.4742 43.6029C41.8934 43.6029 42.3084 43.5203 42.6956 43.3599C43.0828 43.1995 43.4347 42.9644 43.731 42.6681C44.0274 42.3717 44.2625 42.0199 44.4229 41.6327C44.5833 41.2454 44.6658 40.8304 44.6658 40.4113C44.6658 39.9922 44.5833 39.5771 44.4229 39.1899C44.2625 38.8027 44.0274 38.4509 43.731 38.1545C43.4347 37.8581 43.0828 37.623 42.6956 37.4627C42.3084 37.3023 41.8934 37.2197 41.4742 37.2197ZM22.3228 38.2839H29.7681V42.5367H22.3228V38.2839ZM41.4742 38.2839C42.6569 38.2839 43.6026 39.2316 43.6026 40.4123C43.6026 41.597 42.6569 42.5367 41.4742 42.5367C40.2916 42.5367 39.3499 41.595 39.3499 40.4143C39.3499 39.2437 40.2936 38.2839 41.4742 38.2839Z" fill="#A5A5A5"/>
</svg>
