<svg width="20" height="20" viewBox="0 0 20 20" fill="none" xmlns="http://www.w3.org/2000/svg">
<g clip-path="url(#clip0_2414_201)">
<path fill-rule="evenodd" clip-rule="evenodd" d="M8.18345 0.165C8.77179 0.0566667 9.37929 0 10.0001 0C15.5226 0 20.0001 4.4775 20.0001 10C20.0001 15.5225 15.5226 20 10.0001 20C9.38012 20 8.77262 19.9433 8.18345 19.835C8.07422 19.817 7.96965 19.7775 7.87586 19.7187C7.78208 19.6599 7.70095 19.583 7.63722 19.4924C7.57349 19.4019 7.52843 19.2996 7.50468 19.1915C7.48093 19.0833 7.47897 18.9716 7.4989 18.8627C7.51883 18.7538 7.56026 18.6499 7.62076 18.5572C7.68127 18.4645 7.75964 18.3848 7.8513 18.3227C7.94296 18.2606 8.04607 18.2175 8.15461 18.1957C8.26315 18.1739 8.37494 18.1739 8.48346 18.1958C8.97512 18.2858 9.48179 18.3333 10.0001 18.3333C14.6026 18.3333 18.3335 14.6025 18.3335 10C18.3335 5.3975 14.6026 1.66667 10.0001 1.66667C9.48179 1.66667 8.97512 1.71417 8.48346 1.80417C8.37494 1.82606 8.26315 1.82612 8.15461 1.80433C8.04607 1.78255 7.94296 1.73935 7.8513 1.67727C7.75964 1.61519 7.68127 1.53547 7.62076 1.44276C7.56026 1.35005 7.51883 1.24622 7.4989 1.13732C7.47897 1.02843 7.48093 0.916653 7.50468 0.808526C7.52843 0.700399 7.57349 0.598087 7.63722 0.507567C7.70095 0.417047 7.78208 0.340132 7.87586 0.281314C7.96965 0.222496 8.07422 0.182955 8.18345 0.165ZM6.13762 1.64167C6.1925 1.73642 6.22817 1.84107 6.24258 1.94962C6.257 2.05817 6.24988 2.16849 6.22163 2.27429C6.19338 2.38008 6.14456 2.47927 6.07795 2.56619C6.01135 2.65311 5.92827 2.72604 5.83346 2.78083C4.6968 3.43916 3.73081 4.35548 3.01346 5.45583C2.89256 5.64104 2.70304 5.77064 2.4866 5.81612C2.27015 5.8616 2.0445 5.81923 1.85929 5.69833C1.67408 5.57744 1.54448 5.38792 1.499 5.17147C1.45353 4.95503 1.49589 4.72938 1.61679 4.54417C2.47767 3.22511 3.63663 2.12695 5.00012 1.33833C5.09488 1.28345 5.19952 1.24779 5.30807 1.23337C5.41662 1.21896 5.52695 1.22608 5.63274 1.25433C5.73854 1.28258 5.83773 1.3314 5.92465 1.398C6.01156 1.46461 6.0845 1.54769 6.13929 1.6425L6.13762 1.64167ZM14.7376 6.89333C14.8172 6.9685 14.8812 7.05861 14.9259 7.15852C14.9707 7.25842 14.9953 7.36617 14.9984 7.47559C15.0015 7.58502 14.983 7.69398 14.944 7.79626C14.905 7.89854 14.8462 7.99212 14.771 8.07167L9.41096 13.7433C9.28615 13.8767 9.13529 13.983 8.96772 14.0557C8.80015 14.1284 8.61944 14.1659 8.43679 14.1659C8.25413 14.1659 8.07342 14.1284 7.90585 14.0557C7.73828 13.983 7.58742 13.8767 7.46262 13.7433L5.22679 11.3783C5.15161 11.2988 5.09283 11.2052 5.05382 11.1029C5.01481 11.0006 4.99632 10.8917 4.99941 10.7823C5.00567 10.5613 5.09944 10.3518 5.26012 10.2C5.4208 10.0482 5.63521 9.96637 5.85619 9.97263C6.07717 9.97888 6.28662 10.0727 6.43846 10.2333L8.43679 12.3475L13.5601 6.92667C13.6353 6.84708 13.7254 6.78309 13.8253 6.73834C13.9252 6.69359 14.033 6.66897 14.1424 6.66587C14.2518 6.66278 14.3608 6.68127 14.463 6.7203C14.5653 6.75933 14.6589 6.81813 14.7385 6.89333H14.7376ZM1.26012 7.105C1.47522 7.15516 1.66161 7.28866 1.77833 7.47617C1.89506 7.66367 1.93257 7.88985 1.88262 8.105C1.74179 8.71333 1.66679 9.34667 1.66679 10C1.66679 10.6533 1.74179 11.2867 1.88346 11.895C1.9334 12.1104 1.89575 12.3368 1.77877 12.5244C1.6618 12.712 1.47508 12.8455 1.25971 12.8954C1.04433 12.9454 0.817929 12.9077 0.630314 12.7907C0.4427 12.6738 0.309238 12.487 0.259289 12.2717C0.0901221 11.5417 0.00012207 10.78 0.00012207 10C0.00012207 9.22 0.0901221 8.45833 0.259289 7.72833C0.309263 7.51308 0.442686 7.32649 0.630215 7.2096C0.817744 7.0927 1.04486 7.05508 1.26012 7.105ZM1.86012 14.3017C1.95185 14.2418 2.0545 14.2005 2.16218 14.1804C2.26986 14.1602 2.38046 14.1614 2.48766 14.184C2.59486 14.2066 2.69656 14.2501 2.78692 14.3121C2.87728 14.374 2.95455 14.4532 3.01429 14.545C3.73151 15.645 4.69719 16.561 5.83346 17.2192C6.02474 17.3299 6.16421 17.5121 6.22117 17.7256C6.27814 17.9392 6.24793 18.1666 6.13721 18.3579C6.02648 18.5492 5.8443 18.6887 5.63074 18.7456C5.41718 18.8026 5.18974 18.7724 4.99846 18.6617C3.63548 17.8726 2.47709 16.7742 1.61679 15.455C1.55702 15.3633 1.5159 15.2607 1.49578 15.1531C1.47566 15.0455 1.47693 14.935 1.49953 14.8279C1.52213 14.7208 1.5656 14.6192 1.62747 14.5289C1.68935 14.4386 1.7684 14.3614 1.86012 14.3017Z" fill="#3D8BD3"/>
</g>
<defs>
<clipPath id="clip0_2414_201">
<rect width="20" height="20" fill="white"/>
</clipPath>
</defs>
</svg>
