<svg width="44" height="44" viewBox="0 0 44 44" fill="none" xmlns="http://www.w3.org/2000/svg">
<rect x="0.5" y="0.5" width="43" height="43" rx="5.5" fill="white"/>
<rect x="0.5" y="0.5" width="43" height="43" rx="5.5" stroke="#EA2B2B"/>
<path d="M20.3337 16.1667H23.667C23.667 15.7246 23.4914 15.3007 23.1788 14.9882C22.8663 14.6756 22.4424 14.5 22.0003 14.5C21.5583 14.5 21.1344 14.6756 20.8218 14.9882C20.5093 15.3007 20.3337 15.7246 20.3337 16.1667ZM19.0837 16.1667C19.0837 15.7836 19.1591 15.4044 19.3057 15.0505C19.4523 14.6966 19.6671 14.3751 19.9379 14.1043C20.2088 13.8334 20.5303 13.6186 20.8842 13.472C21.238 13.3254 21.6173 13.25 22.0003 13.25C22.3833 13.25 22.7626 13.3254 23.1165 13.472C23.4704 13.6186 23.7919 13.8334 24.0627 14.1043C24.3336 14.3751 24.5484 14.6966 24.695 15.0505C24.8416 15.4044 24.917 15.7836 24.917 16.1667H29.7087C29.8744 16.1667 30.0334 16.2325 30.1506 16.3497C30.2678 16.4669 30.3337 16.6259 30.3337 16.7917C30.3337 16.9574 30.2678 17.1164 30.1506 17.2336C30.0334 17.3508 29.8744 17.4167 29.7087 17.4167H28.6087L27.6337 27.5092C27.5589 28.2825 27.1987 29.0002 26.6234 29.5224C26.0481 30.0445 25.2989 30.3336 24.522 30.3333H19.4787C18.7019 30.3334 17.9529 30.0442 17.3778 29.5221C16.8027 28.9999 16.4426 28.2823 16.3678 27.5092L15.392 17.4167H14.292C14.1262 17.4167 13.9673 17.3508 13.8501 17.2336C13.7328 17.1164 13.667 16.9574 13.667 16.7917C13.667 16.6259 13.7328 16.4669 13.8501 16.3497C13.9673 16.2325 14.1262 16.1667 14.292 16.1667H19.0837ZM20.7503 20.125C20.7503 19.9592 20.6845 19.8003 20.5673 19.6831C20.4501 19.5658 20.2911 19.5 20.1253 19.5C19.9596 19.5 19.8006 19.5658 19.6834 19.6831C19.5662 19.8003 19.5003 19.9592 19.5003 20.125V26.375C19.5003 26.5408 19.5662 26.6997 19.6834 26.8169C19.8006 26.9342 19.9596 27 20.1253 27C20.2911 27 20.4501 26.9342 20.5673 26.8169C20.6845 26.6997 20.7503 26.5408 20.7503 26.375V20.125ZM23.8753 19.5C24.0411 19.5 24.2001 19.5658 24.3173 19.6831C24.4345 19.8003 24.5003 19.9592 24.5003 20.125V26.375C24.5003 26.5408 24.4345 26.6997 24.3173 26.8169C24.2001 26.9342 24.0411 27 23.8753 27C23.7096 27 23.5506 26.9342 23.4334 26.8169C23.3162 26.6997 23.2503 26.5408 23.2503 26.375V20.125C23.2503 19.9592 23.3162 19.8003 23.4334 19.6831C23.5506 19.5658 23.7096 19.5 23.8753 19.5ZM17.612 27.3892C17.6569 27.853 17.873 28.2835 18.2181 28.5968C18.5632 28.91 19.0126 29.0834 19.4787 29.0833H24.522C24.988 29.0834 25.4374 28.91 25.7825 28.5968C26.1276 28.2835 26.3437 27.853 26.3887 27.3892L27.3537 17.4167H16.647L17.612 27.3892Z" fill="#EA2B2B"/>
</svg>
